<svg width="148" height="105" viewBox="0 0 148 105" fill="none" xmlns="http://www.w3.org/2000/svg">
<path d="M30.448 50V16.064H29.44L24.176 28.496H16.672L24.68 10.8H37.616V50H30.448ZM48.6643 50.784C47.171 50.784 45.9016 50.2987 44.8563 49.328C43.8483 48.32 43.3443 47.032 43.3443 45.464C43.3443 43.896 43.8483 42.6267 44.8563 41.656C45.9016 40.648 47.171 40.144 48.6643 40.144C50.195 40.144 51.4643 40.648 52.4723 41.656C53.4803 42.6267 53.9843 43.896 53.9843 45.464C53.9843 47.032 53.4803 48.32 52.4723 49.328C51.4643 50.2987 50.195 50.784 48.6643 50.784ZM72.9251 50.784C69.9385 50.784 67.3438 50.224 65.1411 49.104C62.9385 47.984 61.2398 46.4347 60.0451 44.456C58.8505 42.4773 58.2531 40.2 58.2531 37.624V24.24C58.2531 21.0667 58.8878 18.4347 60.1571 16.344C61.4638 14.216 63.2371 12.6293 65.4771 11.584C67.7545 10.5387 70.3491 10.016 73.2611 10.016C76.1731 10.016 78.6931 10.5013 80.8211 11.472C82.9865 12.4427 84.6478 13.8427 85.8051 15.672C86.9998 17.5013 87.5971 19.6853 87.5971 22.224H80.3171C80.3171 20.656 79.7758 19.2933 78.6931 18.136C77.6105 16.9787 75.7998 16.4 73.2611 16.4C70.7598 16.4 68.8185 17.0533 67.4371 18.36C66.0931 19.6667 65.4211 21.4773 65.4211 23.792V27.824H66.4291C67.0638 27.0773 68.0345 26.368 69.3411 25.696C70.6478 25.024 72.5518 24.688 75.0531 24.688C77.3305 24.688 79.4211 25.1733 81.3251 26.144C83.2665 27.1147 84.8345 28.5333 86.0291 30.4C87.2238 32.2293 87.8211 34.4507 87.8211 37.064V37.736C87.8211 40.312 87.2051 42.5893 85.9731 44.568C84.7411 46.5093 83.0051 48.04 80.7651 49.16C78.5251 50.2427 75.9118 50.784 72.9251 50.784ZM73.0371 44.4C75.3891 44.4 77.2371 43.784 78.5811 42.552C79.9625 41.32 80.6531 39.6773 80.6531 37.624V37.176C80.6531 35.7947 80.3358 34.6 79.7011 33.592C79.1038 32.584 78.2265 31.8 77.0691 31.24C75.9491 30.68 74.6051 30.4 73.0371 30.4C71.5065 30.4 70.1625 30.68 69.0051 31.24C67.8478 31.8 66.9518 32.584 66.3171 33.592C65.7198 34.6 65.4211 35.7947 65.4211 37.176V37.624C65.4211 39.6773 66.0931 41.32 67.4371 42.552C68.8185 43.784 70.6851 44.4 73.0371 44.4ZM97.3583 50.728L93.1023 47.312L123.23 10.072L127.486 13.488L97.3583 50.728ZM120.99 50.56C118.153 50.56 115.932 49.8133 114.326 48.32C112.721 46.7893 111.918 44.7173 111.918 42.104V41.712C111.918 39.0613 112.721 36.9893 114.326 35.496C115.932 33.9653 118.153 33.2 120.99 33.2C123.753 33.2 125.956 33.9653 127.598 35.496C129.241 36.9893 130.062 39.0613 130.062 41.712V42.104C130.062 44.7173 129.26 46.7893 127.654 48.32C126.049 49.8133 123.828 50.56 120.99 50.56ZM120.99 45.968C122.073 45.968 122.913 45.632 123.51 44.96C124.145 44.288 124.462 43.4107 124.462 42.328V41.432C124.462 40.3493 124.145 39.472 123.51 38.8C122.913 38.128 122.073 37.792 120.99 37.792C119.908 37.792 119.049 38.128 118.414 38.8C117.817 39.472 117.518 40.3493 117.518 41.432V42.328C117.518 43.4107 117.817 44.288 118.414 44.96C119.049 45.632 119.908 45.968 120.99 45.968ZM99.5983 27.6C96.761 27.6 94.5396 26.8533 92.9343 25.36C91.329 23.8293 90.5263 21.7573 90.5263 19.144V18.752C90.5263 16.1013 91.329 14.0293 92.9343 12.536C94.5396 11.0053 96.761 10.24 99.5983 10.24C102.361 10.24 104.564 11.0053 106.206 12.536C107.849 14.0293 108.67 16.1013 108.67 18.752V19.144C108.67 21.7573 107.868 23.8293 106.262 25.36C104.657 26.8533 102.436 27.6 99.5983 27.6ZM99.5983 23.008C100.681 23.008 101.521 22.672 102.118 22C102.753 21.328 103.07 20.4507 103.07 19.368V18.472C103.07 17.3893 102.753 16.512 102.118 15.84C101.521 15.168 100.681 14.832 99.5983 14.832C98.5156 14.832 97.657 15.168 97.0223 15.84C96.425 16.512 96.1263 17.3893 96.1263 18.472V19.368C96.1263 20.4507 96.425 21.328 97.0223 22C97.657 22.672 98.5156 23.008 99.5983 23.008Z" fill="#2B71FA"/>
<path d="M20.75 80.75V86.75H15.5V80.75H20.75ZM4.25 95C4.25 95.1989 4.32902 95.3897 4.46967 95.5303C4.61032 95.671 4.80109 95.75 5 95.75H8.75C8.94891 95.75 9.13968 95.671 9.28033 95.5303C9.42098 95.3897 9.5 95.1989 9.5 95V86.75H4.25V95Z" fill="#1C1C1C" fill-opacity="0.1"/>
<path d="M20.75 80H4.25C4.05109 80 3.86032 80.079 3.71967 80.2197C3.57902 80.3603 3.5 80.5511 3.5 80.75V95C3.5 95.3978 3.65804 95.7794 3.93934 96.0607C4.22064 96.342 4.60218 96.5 5 96.5H8.75C9.14782 96.5 9.52936 96.342 9.81066 96.0607C10.092 95.7794 10.25 95.3978 10.25 95V90.5H14.75V92C14.75 92.3978 14.908 92.7794 15.1893 93.0607C15.4706 93.342 15.8522 93.5 16.25 93.5H20C20.3978 93.5 20.7794 93.342 21.0607 93.0607C21.342 92.7794 21.5 92.3978 21.5 92V80.75C21.5 80.5511 21.421 80.3603 21.2803 80.2197C21.1397 80.079 20.9489 80 20.75 80ZM20 86H16.25V81.5H20V86ZM8.75 81.5V86H5V81.5H8.75ZM8.75 95H5V87.5H8.75V95ZM10.25 89V81.5H14.75V89H10.25ZM16.25 92V87.5H20V92H16.25Z" fill="#1C1C1C"/>
<path d="M33.62 92.5V82.7H34.796V91.436H39.752V92.5H33.62ZM44.4139 92.696C43.7232 92.696 43.1119 92.5513 42.5799 92.262C42.0572 91.9727 41.6466 91.5667 41.3479 91.044C41.0586 90.512 40.9139 89.8867 40.9139 89.168V88.986C40.9139 88.2767 41.0586 87.656 41.3479 87.124C41.6466 86.592 42.0572 86.1813 42.5799 85.892C43.1119 85.6027 43.7232 85.458 44.4139 85.458C45.1046 85.458 45.7112 85.6027 46.2339 85.892C46.7659 86.1813 47.1766 86.592 47.4659 87.124C47.7646 87.656 47.9139 88.2767 47.9139 88.986V89.168C47.9139 89.8867 47.7646 90.512 47.4659 91.044C47.1766 91.5667 46.7659 91.9727 46.2339 92.262C45.7112 92.5513 45.1046 92.696 44.4139 92.696ZM44.4139 91.702C45.1419 91.702 45.7206 91.4733 46.1499 91.016C46.5886 90.5493 46.8079 89.924 46.8079 89.14V89.014C46.8079 88.23 46.5886 87.6093 46.1499 87.152C45.7206 86.6853 45.1419 86.452 44.4139 86.452C43.6952 86.452 43.1166 86.6853 42.6779 87.152C42.2392 87.6093 42.0199 88.23 42.0199 89.014V89.14C42.0199 89.924 42.2392 90.5493 42.6779 91.016C43.1166 91.4733 43.6952 91.702 44.4139 91.702ZM50.7195 92.5L49.3475 85.654H50.4675L51.6015 91.758H51.7975L53.2955 85.654H55.1295L56.6275 91.758H56.8235L57.9575 85.654H59.0775L57.7055 92.5H55.8155L54.3035 86.396H54.1215L52.6095 92.5H50.7195ZM64.5741 92.5V85.654H65.6801V92.5H64.5741ZM65.1341 84.59C64.8914 84.59 64.6861 84.5107 64.5181 84.352C64.3594 84.1933 64.2801 83.9927 64.2801 83.75C64.2801 83.498 64.3594 83.2927 64.5181 83.134C64.6861 82.9753 64.8914 82.896 65.1341 82.896C65.3768 82.896 65.5774 82.9753 65.7361 83.134C65.8948 83.2927 65.9741 83.498 65.9741 83.75C65.9741 83.9927 65.8948 84.1933 65.7361 84.352C65.5774 84.5107 65.3768 84.59 65.1341 84.59ZM68.0058 92.5V85.654H69.0838V86.816H69.2798C69.4291 86.4893 69.6811 86.1953 70.0358 85.934C70.3998 85.6633 70.9318 85.528 71.6318 85.528C72.1451 85.528 72.6024 85.6353 73.0038 85.85C73.4144 86.0647 73.7411 86.382 73.9838 86.802C74.2264 87.222 74.3478 87.74 74.3478 88.356V92.5H73.2418V88.44C73.2418 87.7587 73.0691 87.264 72.7238 86.956C72.3878 86.648 71.9304 86.494 71.3518 86.494C70.6891 86.494 70.1478 86.7087 69.7278 87.138C69.3171 87.5673 69.1118 88.2067 69.1118 89.056V92.5H68.0058ZM78.9203 92.5C78.5283 92.5 78.2249 92.3927 78.0103 92.178C77.8049 91.9633 77.7023 91.6693 77.7023 91.296V86.62H75.6443V85.654H77.7023V83.218H78.8083V85.654H81.0483V86.62H78.8083V91.128C78.8083 91.408 78.9436 91.548 79.2143 91.548H80.7403V92.5H78.9203ZM85.7296 92.696C85.039 92.696 84.4323 92.5513 83.9096 92.262C83.387 91.9633 82.981 91.548 82.6916 91.016C82.4023 90.484 82.2576 89.868 82.2576 89.168V89C82.2576 88.2907 82.4023 87.67 82.6916 87.138C82.981 86.606 83.3823 86.1953 83.8956 85.906C84.409 85.6073 84.997 85.458 85.6596 85.458C86.3036 85.458 86.873 85.598 87.3676 85.878C87.8623 86.1487 88.2496 86.5407 88.5296 87.054C88.8096 87.5673 88.9496 88.1693 88.9496 88.86V89.364H83.3636C83.3916 90.1013 83.6296 90.68 84.0776 91.1C84.5256 91.5107 85.0856 91.716 85.7576 91.716C86.3456 91.716 86.7983 91.5807 87.1156 91.31C87.433 91.0393 87.6756 90.7173 87.8436 90.344L88.7956 90.806C88.6556 91.0953 88.4596 91.3847 88.2076 91.674C87.965 91.9633 87.643 92.206 87.2416 92.402C86.8496 92.598 86.3456 92.696 85.7296 92.696ZM83.3776 88.454H87.8296C87.7923 87.8193 87.573 87.3247 87.1716 86.97C86.7796 86.6153 86.2756 86.438 85.6596 86.438C85.0343 86.438 84.521 86.6153 84.1196 86.97C83.7183 87.3247 83.471 87.8193 83.3776 88.454ZM90.8788 92.5V85.654H91.9568V86.494H92.1528C92.2741 86.1953 92.4608 85.976 92.7128 85.836C92.9648 85.696 93.2961 85.626 93.7068 85.626H94.5188V86.634H93.6368C93.1421 86.634 92.7408 86.774 92.4328 87.054C92.1341 87.3247 91.9848 87.7493 91.9848 88.328V92.5H90.8788ZM99.046 92.696C98.3554 92.696 97.7487 92.5513 97.226 92.262C96.7034 91.9633 96.2974 91.548 96.008 91.016C95.7187 90.484 95.574 89.868 95.574 89.168V89C95.574 88.2907 95.7187 87.67 96.008 87.138C96.2974 86.606 96.6987 86.1953 97.212 85.906C97.7254 85.6073 98.3134 85.458 98.976 85.458C99.62 85.458 100.189 85.598 100.684 85.878C101.179 86.1487 101.566 86.5407 101.846 87.054C102.126 87.5673 102.266 88.1693 102.266 88.86V89.364H96.68C96.708 90.1013 96.946 90.68 97.394 91.1C97.842 91.5107 98.402 91.716 99.074 91.716C99.662 91.716 100.115 91.5807 100.432 91.31C100.749 91.0393 100.992 90.7173 101.16 90.344L102.112 90.806C101.972 91.0953 101.776 91.3847 101.524 91.674C101.281 91.9633 100.959 92.206 100.558 92.402C100.166 92.598 99.662 92.696 99.046 92.696ZM96.694 88.454H101.146C101.109 87.8193 100.889 87.3247 100.488 86.97C100.096 86.6153 99.592 86.438 98.976 86.438C98.3507 86.438 97.8374 86.6153 97.436 86.97C97.0347 87.3247 96.7874 87.8193 96.694 88.454ZM106.953 92.696C106.104 92.696 105.385 92.5 104.797 92.108C104.219 91.716 103.869 91.0953 103.747 90.246L104.797 90.008C104.872 90.456 105.012 90.8107 105.217 91.072C105.423 91.324 105.675 91.506 105.973 91.618C106.281 91.7207 106.608 91.772 106.953 91.772C107.467 91.772 107.873 91.6693 108.171 91.464C108.47 91.2587 108.619 90.9833 108.619 90.638C108.619 90.2833 108.475 90.036 108.185 89.896C107.905 89.7467 107.518 89.6253 107.023 89.532L106.449 89.434C106.011 89.3593 105.609 89.2427 105.245 89.084C104.881 88.9253 104.592 88.7107 104.377 88.44C104.163 88.1693 104.055 87.8287 104.055 87.418C104.055 86.802 104.293 86.3213 104.769 85.976C105.245 85.6307 105.875 85.458 106.659 85.458C107.434 85.458 108.059 85.6353 108.535 85.99C109.021 86.3353 109.333 86.8253 109.473 87.46L108.437 87.726C108.353 87.2313 108.153 86.886 107.835 86.69C107.518 86.4847 107.126 86.382 106.659 86.382C106.193 86.382 105.824 86.4707 105.553 86.648C105.283 86.816 105.147 87.068 105.147 87.404C105.147 87.7307 105.273 87.9733 105.525 88.132C105.787 88.2813 106.132 88.3933 106.561 88.468L107.135 88.566C107.621 88.65 108.055 88.7667 108.437 88.916C108.829 89.056 109.137 89.2613 109.361 89.532C109.595 89.8027 109.711 90.1573 109.711 90.596C109.711 91.268 109.459 91.786 108.955 92.15C108.461 92.514 107.793 92.696 106.953 92.696ZM113.948 92.5C113.556 92.5 113.252 92.3927 113.038 92.178C112.832 91.9633 112.73 91.6693 112.73 91.296V86.62H110.672V85.654H112.73V83.218H113.836V85.654H116.076V86.62H113.836V91.128C113.836 91.408 113.971 91.548 114.242 91.548H115.768V92.5H113.948ZM121.463 92.5V85.654H122.541V86.494H122.737C122.858 86.1953 123.045 85.976 123.297 85.836C123.549 85.696 123.88 85.626 124.291 85.626H125.103V86.634H124.221C123.726 86.634 123.325 86.774 123.017 87.054C122.718 87.3247 122.569 87.7493 122.569 88.328V92.5H121.463ZM128.608 92.696C128.132 92.696 127.698 92.612 127.306 92.444C126.914 92.276 126.606 92.0333 126.382 91.716C126.158 91.3987 126.046 91.0113 126.046 90.554C126.046 90.0873 126.158 89.7047 126.382 89.406C126.606 89.098 126.914 88.8693 127.306 88.72C127.698 88.5613 128.136 88.482 128.622 88.482H130.932V87.978C130.932 87.4927 130.787 87.11 130.498 86.83C130.218 86.55 129.798 86.41 129.238 86.41C128.687 86.41 128.258 86.5453 127.95 86.816C127.642 87.0773 127.432 87.432 127.32 87.88L126.284 87.544C126.396 87.1613 126.573 86.816 126.816 86.508C127.058 86.1907 127.38 85.9387 127.782 85.752C128.192 85.556 128.682 85.458 129.252 85.458C130.129 85.458 130.81 85.6867 131.296 86.144C131.781 86.592 132.024 87.2267 132.024 88.048V91.142C132.024 91.422 132.154 91.562 132.416 91.562H133.046V92.5H132.08C131.772 92.5 131.524 92.416 131.338 92.248C131.151 92.0707 131.058 91.8373 131.058 91.548V91.478H130.89C130.787 91.6553 130.647 91.842 130.47 92.038C130.302 92.2247 130.068 92.3787 129.77 92.5C129.471 92.6307 129.084 92.696 128.608 92.696ZM128.734 91.744C129.387 91.744 129.914 91.5527 130.316 91.17C130.726 90.778 130.932 90.232 130.932 89.532V89.378H128.664C128.225 89.378 127.861 89.476 127.572 89.672C127.292 89.8587 127.152 90.1433 127.152 90.526C127.152 90.9087 127.296 91.2073 127.586 91.422C127.884 91.6367 128.267 91.744 128.734 91.744ZM136.629 92.5C136.237 92.5 135.934 92.3927 135.719 92.178C135.514 91.9633 135.411 91.6693 135.411 91.296V86.62H133.353V85.654H135.411V83.218H136.517V85.654H138.757V86.62H136.517V91.128C136.517 91.408 136.653 91.548 136.923 91.548H138.449V92.5H136.629ZM143.439 92.696C142.748 92.696 142.141 92.5513 141.619 92.262C141.096 91.9633 140.69 91.548 140.401 91.016C140.111 90.484 139.967 89.868 139.967 89.168V89C139.967 88.2907 140.111 87.67 140.401 87.138C140.69 86.606 141.091 86.1953 141.605 85.906C142.118 85.6073 142.706 85.458 143.369 85.458C144.013 85.458 144.582 85.598 145.077 85.878C145.571 86.1487 145.959 86.5407 146.239 87.054C146.519 87.5673 146.659 88.1693 146.659 88.86V89.364H141.073C141.101 90.1013 141.339 90.68 141.787 91.1C142.235 91.5107 142.795 91.716 143.467 91.716C144.055 91.716 144.507 91.5807 144.825 91.31C145.142 91.0393 145.385 90.7173 145.553 90.344L146.505 90.806C146.365 91.0953 146.169 91.3847 145.917 91.674C145.674 91.9633 145.352 92.206 144.951 92.402C144.559 92.598 144.055 92.696 143.439 92.696ZM141.087 88.454H145.539C145.501 87.8193 145.282 87.3247 144.881 86.97C144.489 86.6153 143.985 86.438 143.369 86.438C142.743 86.438 142.23 86.6153 141.829 86.97C141.427 87.3247 141.18 87.8193 141.087 88.454Z" fill="#1C1C1C" fill-opacity="0.6"/>
</svg>
