<svg width="214" height="55" viewBox="0 0 214 55" fill="none" xmlns="http://www.w3.org/2000/svg">
<rect x="0.599976" width="236.8" height="20" rx="10" fill="white"/>
<rect x="8.59998" y="4" width="12" height="12" rx="5.4" fill="#2B71FA"/>
<path fill-rule="evenodd" clip-rule="evenodd" d="M17.8651 7.85983C18.0116 8.00628 18.0116 8.24372 17.8651 8.39017L14.6455 11.6098C14.2061 12.0492 13.4938 12.0492 13.0545 11.6098L11.7098 10.2652C11.5634 10.1187 11.5634 9.88128 11.7098 9.73484C11.8563 9.58839 12.0937 9.58839 12.2401 9.73484L13.5848 11.0795C13.7313 11.226 13.9687 11.226 14.1151 11.0795L17.3348 7.85983C17.4813 7.71339 17.7187 7.71339 17.8651 7.85983Z" fill="white"/>
<path d="M26.12 13V6.7H29.999V7.384H26.876V9.49H29.747V10.174H26.876V12.316H30.044V13H26.12ZM32.5683 13.126C32.2623 13.126 31.9833 13.072 31.7313 12.964C31.4793 12.856 31.2813 12.7 31.1373 12.496C30.9933 12.292 30.9213 12.043 30.9213 11.749C30.9213 11.449 30.9933 11.203 31.1373 11.011C31.2813 10.813 31.4793 10.666 31.7313 10.57C31.9833 10.468 32.2653 10.417 32.5773 10.417H34.0623V10.093C34.0623 9.781 33.9693 9.535 33.7833 9.355C33.6033 9.175 33.3333 9.085 32.9733 9.085C32.6193 9.085 32.3433 9.172 32.1453 9.346C31.9473 9.514 31.8123 9.742 31.7403 10.03L31.0743 9.814C31.1463 9.568 31.2603 9.346 31.4163 9.148C31.5723 8.944 31.7793 8.782 32.0373 8.662C32.3013 8.536 32.6163 8.473 32.9823 8.473C33.5463 8.473 33.9843 8.62 34.2963 8.914C34.6083 9.202 34.7643 9.61 34.7643 10.138V12.127C34.7643 12.307 34.8483 12.397 35.0163 12.397H35.4213V13H34.8003C34.6023 13 34.4433 12.946 34.3233 12.838C34.2033 12.724 34.1433 12.574 34.1433 12.388V12.343H34.0353C33.9693 12.457 33.8793 12.577 33.7653 12.703C33.6573 12.823 33.5073 12.922 33.3153 13C33.1233 13.084 32.8743 13.126 32.5683 13.126ZM32.6493 12.514C33.0693 12.514 33.4083 12.391 33.6663 12.145C33.9303 11.893 34.0623 11.542 34.0623 11.092V10.993H32.6043C32.3223 10.993 32.0883 11.056 31.9023 11.182C31.7223 11.302 31.6323 11.485 31.6323 11.731C31.6323 11.977 31.7253 12.169 31.9113 12.307C32.1033 12.445 32.3493 12.514 32.6493 12.514ZM38.1329 13.126C37.5869 13.126 37.1249 13 36.7469 12.748C36.3749 12.496 36.1499 12.097 36.0719 11.551L36.7469 11.398C36.7949 11.686 36.8849 11.914 37.0169 12.082C37.1489 12.244 37.3109 12.361 37.5029 12.433C37.7009 12.499 37.9109 12.532 38.1329 12.532C38.4629 12.532 38.7239 12.466 38.9159 12.334C39.1079 12.202 39.2039 12.025 39.2039 11.803C39.2039 11.575 39.1109 11.416 38.9249 11.326C38.7449 11.23 38.4959 11.152 38.1779 11.092L37.8089 11.029C37.5269 10.981 37.2689 10.906 37.0349 10.804C36.8009 10.702 36.6149 10.564 36.4769 10.39C36.3389 10.216 36.2699 9.997 36.2699 9.733C36.2699 9.337 36.4229 9.028 36.7289 8.806C37.0349 8.584 37.4399 8.473 37.9439 8.473C38.4419 8.473 38.8439 8.587 39.1499 8.815C39.4619 9.037 39.6629 9.352 39.7529 9.76L39.0869 9.931C39.0329 9.613 38.9039 9.391 38.6999 9.265C38.4959 9.133 38.2439 9.067 37.9439 9.067C37.6439 9.067 37.4069 9.124 37.2329 9.238C37.0589 9.346 36.9719 9.508 36.9719 9.724C36.9719 9.934 37.0529 10.09 37.2149 10.192C37.3829 10.288 37.6049 10.36 37.8809 10.408L38.2499 10.471C38.5619 10.525 38.8409 10.6 39.0869 10.696C39.3389 10.786 39.5369 10.918 39.6809 11.092C39.8309 11.266 39.9059 11.494 39.9059 11.776C39.9059 12.208 39.7439 12.541 39.4199 12.775C39.1019 13.009 38.6729 13.126 38.1329 13.126ZM41.106 13V8.599H41.817V13H41.106ZM41.466 7.915C41.31 7.915 41.178 7.864 41.07 7.762C40.968 7.66 40.917 7.531 40.917 7.375C40.917 7.213 40.968 7.081 41.07 6.979C41.178 6.877 41.31 6.826 41.466 6.826C41.622 6.826 41.751 6.877 41.853 6.979C41.955 7.081 42.006 7.213 42.006 7.375C42.006 7.531 41.955 7.66 41.853 7.762C41.751 7.864 41.622 7.915 41.466 7.915ZM43.3121 13V6.7H44.0231V13H43.3121ZM46.0491 14.8V14.17H48.5691C48.7431 14.17 48.8301 14.08 48.8301 13.9V12.298H48.7041C48.6441 12.424 48.5511 12.55 48.4251 12.676C48.3051 12.796 48.1461 12.895 47.9481 12.973C47.7501 13.045 47.5011 13.081 47.2011 13.081C46.8831 13.081 46.5891 13.012 46.3191 12.874C46.0551 12.736 45.8451 12.532 45.6891 12.262C45.5391 11.992 45.4641 11.662 45.4641 11.272V8.599H46.1751V11.218C46.1751 11.65 46.2831 11.965 46.4991 12.163C46.7211 12.361 47.0181 12.46 47.3901 12.46C47.8101 12.46 48.1551 12.322 48.4251 12.046C48.6951 11.77 48.8301 11.359 48.8301 10.813V8.599H49.5411V14.026C49.5411 14.266 49.4721 14.455 49.3341 14.593C49.2021 14.731 49.0071 14.8 48.7491 14.8H46.0491ZM53.3134 13V6.7H54.7534L56.4274 12.523H56.5444L58.2184 6.7H59.6584V13H58.9294V7.195H58.8034L57.1384 13H55.8334L54.1684 7.195H54.0424V13H53.3134ZM62.4775 13.126C62.1715 13.126 61.8925 13.072 61.6405 12.964C61.3885 12.856 61.1905 12.7 61.0465 12.496C60.9025 12.292 60.8305 12.043 60.8305 11.749C60.8305 11.449 60.9025 11.203 61.0465 11.011C61.1905 10.813 61.3885 10.666 61.6405 10.57C61.8925 10.468 62.1745 10.417 62.4865 10.417H63.9715V10.093C63.9715 9.781 63.8785 9.535 63.6925 9.355C63.5125 9.175 63.2425 9.085 62.8825 9.085C62.5285 9.085 62.2525 9.172 62.0545 9.346C61.8565 9.514 61.7215 9.742 61.6495 10.03L60.9835 9.814C61.0555 9.568 61.1695 9.346 61.3255 9.148C61.4815 8.944 61.6885 8.782 61.9465 8.662C62.2105 8.536 62.5255 8.473 62.8915 8.473C63.4555 8.473 63.8935 8.62 64.2055 8.914C64.5175 9.202 64.6735 9.61 64.6735 10.138V12.127C64.6735 12.307 64.7575 12.397 64.9255 12.397H65.3305V13H64.7095C64.5115 13 64.3525 12.946 64.2325 12.838C64.1125 12.724 64.0525 12.574 64.0525 12.388V12.343H63.9445C63.8785 12.457 63.7885 12.577 63.6745 12.703C63.5665 12.823 63.4165 12.922 63.2245 13C63.0325 13.084 62.7835 13.126 62.4775 13.126ZM62.5585 12.514C62.9785 12.514 63.3175 12.391 63.5755 12.145C63.8395 11.893 63.9715 11.542 63.9715 11.092V10.993H62.5135C62.2315 10.993 61.9975 11.056 61.8115 11.182C61.6315 11.302 61.5415 11.485 61.5415 11.731C61.5415 11.977 61.6345 12.169 61.8205 12.307C62.0125 12.445 62.2585 12.514 62.5585 12.514ZM66.3043 13V8.599H66.9973V9.346H67.1233C67.2193 9.136 67.3813 8.947 67.6093 8.779C67.8433 8.605 68.1853 8.518 68.6353 8.518C68.9653 8.518 69.2593 8.587 69.5173 8.725C69.7813 8.863 69.9913 9.067 70.1473 9.337C70.3033 9.607 70.3813 9.94 70.3813 10.336V13H69.6703V10.39C69.6703 9.952 69.5593 9.634 69.3373 9.436C69.1213 9.238 68.8273 9.139 68.4553 9.139C68.0293 9.139 67.6813 9.277 67.4113 9.553C67.1473 9.829 67.0153 10.24 67.0153 10.786V13H66.3043ZM73.1738 13.126C72.8678 13.126 72.5888 13.072 72.3368 12.964C72.0848 12.856 71.8868 12.7 71.7428 12.496C71.5988 12.292 71.5268 12.043 71.5268 11.749C71.5268 11.449 71.5988 11.203 71.7428 11.011C71.8868 10.813 72.0848 10.666 72.3368 10.57C72.5888 10.468 72.8708 10.417 73.1828 10.417H74.6678V10.093C74.6678 9.781 74.5748 9.535 74.3888 9.355C74.2088 9.175 73.9388 9.085 73.5788 9.085C73.2248 9.085 72.9488 9.172 72.7508 9.346C72.5528 9.514 72.4178 9.742 72.3458 10.03L71.6798 9.814C71.7518 9.568 71.8658 9.346 72.0218 9.148C72.1778 8.944 72.3848 8.782 72.6428 8.662C72.9068 8.536 73.2218 8.473 73.5878 8.473C74.1518 8.473 74.5898 8.62 74.9018 8.914C75.2138 9.202 75.3698 9.61 75.3698 10.138V12.127C75.3698 12.307 75.4538 12.397 75.6218 12.397H76.0268V13H75.4058C75.2078 13 75.0488 12.946 74.9288 12.838C74.8088 12.724 74.7488 12.574 74.7488 12.388V12.343H74.6408C74.5748 12.457 74.4848 12.577 74.3708 12.703C74.2628 12.823 74.1128 12.922 73.9208 13C73.7288 13.084 73.4798 13.126 73.1738 13.126ZM73.2548 12.514C73.6748 12.514 74.0138 12.391 74.2718 12.145C74.5358 11.893 74.6678 11.542 74.6678 11.092V10.993H73.2098C72.9278 10.993 72.6938 11.056 72.5078 11.182C72.3278 11.302 72.2378 11.485 72.2378 11.731C72.2378 11.977 72.3308 12.169 72.5168 12.307C72.7088 12.445 72.9548 12.514 73.2548 12.514ZM76.6615 10.822V10.696C76.6615 10.234 76.7545 9.838 76.9405 9.508C77.1265 9.178 77.3785 8.923 77.6965 8.743C78.0145 8.563 78.3625 8.473 78.7405 8.473C79.2025 8.473 79.5565 8.563 79.8025 8.743C80.0545 8.917 80.2405 9.112 80.3605 9.328H80.4865V8.599H81.1615V14.026C81.1615 14.266 81.0955 14.455 80.9635 14.593C80.8315 14.731 80.6395 14.8 80.3875 14.8H77.3995V14.17H80.1985C80.3785 14.17 80.4685 14.08 80.4685 13.9V12.226H80.3425C80.2705 12.358 80.1685 12.487 80.0365 12.613C79.9045 12.739 79.7335 12.844 79.5235 12.928C79.3135 13.006 79.0525 13.045 78.7405 13.045C78.3625 13.045 78.0145 12.955 77.6965 12.775C77.3785 12.595 77.1265 12.34 76.9405 12.01C76.7545 11.674 76.6615 11.278 76.6615 10.822ZM78.9295 12.415C79.3855 12.415 79.7545 12.271 80.0365 11.983C80.3245 11.695 80.4685 11.299 80.4685 10.795V10.723C80.4685 10.213 80.3245 9.817 80.0365 9.535C79.7545 9.247 79.3855 9.103 78.9295 9.103C78.4795 9.103 78.1075 9.247 77.8135 9.535C77.5255 9.817 77.3815 10.213 77.3815 10.723V10.795C77.3815 11.299 77.5255 11.695 77.8135 11.983C78.1075 12.271 78.4795 12.415 78.9295 12.415ZM84.6679 13.126C84.2239 13.126 83.8339 13.033 83.4979 12.847C83.1619 12.655 82.9009 12.388 82.7149 12.046C82.5289 11.704 82.4359 11.308 82.4359 10.858V10.75C82.4359 10.294 82.5289 9.895 82.7149 9.553C82.9009 9.211 83.1589 8.947 83.4889 8.761C83.8189 8.569 84.1969 8.473 84.6229 8.473C85.0369 8.473 85.4029 8.563 85.7209 8.743C86.0389 8.917 86.2879 9.169 86.4679 9.499C86.6479 9.829 86.7379 10.216 86.7379 10.66V10.984H83.1469C83.1649 11.458 83.3179 11.83 83.6059 12.1C83.8939 12.364 84.2539 12.496 84.6859 12.496C85.0639 12.496 85.3549 12.409 85.5589 12.235C85.7629 12.061 85.9189 11.854 86.0269 11.614L86.6389 11.911C86.5489 12.097 86.4229 12.283 86.2609 12.469C86.1049 12.655 85.8979 12.811 85.6399 12.937C85.3879 13.063 85.0639 13.126 84.6679 13.126ZM83.1559 10.399H86.0179C85.9939 9.991 85.8529 9.673 85.5949 9.445C85.3429 9.217 85.0189 9.103 84.6229 9.103C84.2209 9.103 83.8909 9.217 83.6329 9.445C83.3749 9.673 83.2159 9.991 83.1559 10.399ZM91.6396 13.126C91.3336 13.126 91.0546 13.072 90.8026 12.964C90.5506 12.856 90.3526 12.7 90.2086 12.496C90.0646 12.292 89.9926 12.043 89.9926 11.749C89.9926 11.449 90.0646 11.203 90.2086 11.011C90.3526 10.813 90.5506 10.666 90.8026 10.57C91.0546 10.468 91.3366 10.417 91.6486 10.417H93.1336V10.093C93.1336 9.781 93.0406 9.535 92.8546 9.355C92.6746 9.175 92.4046 9.085 92.0446 9.085C91.6906 9.085 91.4146 9.172 91.2166 9.346C91.0186 9.514 90.8836 9.742 90.8116 10.03L90.1456 9.814C90.2176 9.568 90.3316 9.346 90.4876 9.148C90.6436 8.944 90.8506 8.782 91.1086 8.662C91.3726 8.536 91.6876 8.473 92.0536 8.473C92.6176 8.473 93.0556 8.62 93.3676 8.914C93.6796 9.202 93.8356 9.61 93.8356 10.138V12.127C93.8356 12.307 93.9196 12.397 94.0876 12.397H94.4926V13H93.8716C93.6736 13 93.5146 12.946 93.3946 12.838C93.2746 12.724 93.2146 12.574 93.2146 12.388V12.343H93.1066C93.0406 12.457 92.9506 12.577 92.8366 12.703C92.7286 12.823 92.5786 12.922 92.3866 13C92.1946 13.084 91.9456 13.126 91.6396 13.126ZM91.7206 12.514C92.1406 12.514 92.4796 12.391 92.7376 12.145C93.0016 11.893 93.1336 11.542 93.1336 11.092V10.993H91.6756C91.3936 10.993 91.1596 11.056 90.9736 11.182C90.7936 11.302 90.7036 11.485 90.7036 11.731C90.7036 11.977 90.7966 12.169 90.9826 12.307C91.1746 12.445 91.4206 12.514 91.7206 12.514ZM95.4664 13V8.599H96.1594V9.346H96.2854C96.3814 9.136 96.5434 8.947 96.7714 8.779C97.0054 8.605 97.3474 8.518 97.7974 8.518C98.1274 8.518 98.4214 8.587 98.6794 8.725C98.9434 8.863 99.1534 9.067 99.3094 9.337C99.4654 9.607 99.5434 9.94 99.5434 10.336V13H98.8324V10.39C98.8324 9.952 98.7214 9.634 98.4994 9.436C98.2834 9.238 97.9894 9.139 97.6174 9.139C97.1914 9.139 96.8434 9.277 96.5734 9.553C96.3094 9.829 96.1774 10.24 96.1774 10.786V13H95.4664ZM102.849 13.126C102.471 13.126 102.123 13.036 101.805 12.856C101.487 12.676 101.235 12.415 101.049 12.073C100.863 11.731 100.77 11.326 100.77 10.858V10.741C100.77 10.273 100.863 9.871 101.049 9.535C101.235 9.193 101.484 8.932 101.796 8.752C102.114 8.566 102.465 8.473 102.849 8.473C103.155 8.473 103.413 8.515 103.623 8.599C103.839 8.677 104.013 8.779 104.145 8.905C104.277 9.025 104.379 9.154 104.451 9.292H104.577V6.7H105.288V13H104.595V12.271H104.469C104.349 12.493 104.163 12.691 103.911 12.865C103.659 13.039 103.305 13.126 102.849 13.126ZM103.038 12.496C103.494 12.496 103.863 12.352 104.145 12.064C104.433 11.77 104.577 11.362 104.577 10.84V10.759C104.577 10.237 104.433 9.832 104.145 9.544C103.863 9.25 103.494 9.103 103.038 9.103C102.588 9.103 102.216 9.25 101.922 9.544C101.634 9.832 101.49 10.237 101.49 10.759V10.84C101.49 11.362 101.634 11.77 101.922 12.064C102.216 12.352 102.588 12.496 103.038 12.496ZM108.453 13L110.397 6.7H111.729L113.673 13H112.89L112.404 11.407H109.722L109.236 13H108.453ZM109.911 10.723H112.206L111.126 7.159H111L109.911 10.723ZM116.669 13.126C116.243 13.126 115.859 13.036 115.517 12.856C115.181 12.67 114.914 12.406 114.716 12.064C114.524 11.722 114.428 11.317 114.428 10.849V10.75C114.428 10.276 114.524 9.871 114.716 9.535C114.914 9.193 115.181 8.932 115.517 8.752C115.859 8.566 116.243 8.473 116.669 8.473C117.089 8.473 117.446 8.551 117.74 8.707C118.04 8.863 118.274 9.07 118.442 9.328C118.616 9.586 118.727 9.862 118.775 10.156L118.082 10.3C118.052 10.084 117.98 9.886 117.866 9.706C117.758 9.526 117.605 9.382 117.407 9.274C117.209 9.166 116.966 9.112 116.678 9.112C116.384 9.112 116.12 9.178 115.886 9.31C115.658 9.442 115.475 9.631 115.337 9.877C115.205 10.123 115.139 10.417 115.139 10.759V10.84C115.139 11.182 115.205 11.476 115.337 11.722C115.475 11.968 115.658 12.157 115.886 12.289C116.12 12.421 116.384 12.487 116.678 12.487C117.116 12.487 117.449 12.373 117.677 12.145C117.911 11.917 118.055 11.635 118.109 11.299L118.811 11.452C118.745 11.74 118.625 12.013 118.451 12.271C118.277 12.529 118.04 12.736 117.74 12.892C117.446 13.048 117.089 13.126 116.669 13.126ZM122.048 13.126C121.622 13.126 121.238 13.036 120.896 12.856C120.56 12.67 120.293 12.406 120.095 12.064C119.903 11.722 119.807 11.317 119.807 10.849V10.75C119.807 10.276 119.903 9.871 120.095 9.535C120.293 9.193 120.56 8.932 120.896 8.752C121.238 8.566 121.622 8.473 122.048 8.473C122.468 8.473 122.825 8.551 123.119 8.707C123.419 8.863 123.653 9.07 123.821 9.328C123.995 9.586 124.106 9.862 124.154 10.156L123.461 10.3C123.431 10.084 123.359 9.886 123.245 9.706C123.137 9.526 122.984 9.382 122.786 9.274C122.588 9.166 122.345 9.112 122.057 9.112C121.763 9.112 121.499 9.178 121.265 9.31C121.037 9.442 120.854 9.631 120.716 9.877C120.584 10.123 120.518 10.417 120.518 10.759V10.84C120.518 11.182 120.584 11.476 120.716 11.722C120.854 11.968 121.037 12.157 121.265 12.289C121.499 12.421 121.763 12.487 122.057 12.487C122.495 12.487 122.828 12.373 123.056 12.145C123.29 11.917 123.434 11.635 123.488 11.299L124.19 11.452C124.124 11.74 124.004 12.013 123.83 12.271C123.656 12.529 123.419 12.736 123.119 12.892C122.825 13.048 122.468 13.126 122.048 13.126ZM127.418 13.126C126.974 13.126 126.584 13.033 126.248 12.847C125.912 12.655 125.651 12.388 125.465 12.046C125.279 11.704 125.186 11.308 125.186 10.858V10.75C125.186 10.294 125.279 9.895 125.465 9.553C125.651 9.211 125.909 8.947 126.239 8.761C126.569 8.569 126.947 8.473 127.373 8.473C127.787 8.473 128.153 8.563 128.471 8.743C128.789 8.917 129.038 9.169 129.218 9.499C129.398 9.829 129.488 10.216 129.488 10.66V10.984H125.897C125.915 11.458 126.068 11.83 126.356 12.1C126.644 12.364 127.004 12.496 127.436 12.496C127.814 12.496 128.105 12.409 128.309 12.235C128.513 12.061 128.669 11.854 128.777 11.614L129.389 11.911C129.299 12.097 129.173 12.283 129.011 12.469C128.855 12.655 128.648 12.811 128.39 12.937C128.138 13.063 127.814 13.126 127.418 13.126ZM125.906 10.399H128.768C128.744 9.991 128.603 9.673 128.345 9.445C128.093 9.217 127.769 9.103 127.373 9.103C126.971 9.103 126.641 9.217 126.383 9.445C126.125 9.673 125.966 9.991 125.906 10.399ZM132.501 13.126C131.955 13.126 131.493 13 131.115 12.748C130.743 12.496 130.518 12.097 130.44 11.551L131.115 11.398C131.163 11.686 131.253 11.914 131.385 12.082C131.517 12.244 131.679 12.361 131.871 12.433C132.069 12.499 132.279 12.532 132.501 12.532C132.831 12.532 133.092 12.466 133.284 12.334C133.476 12.202 133.572 12.025 133.572 11.803C133.572 11.575 133.479 11.416 133.293 11.326C133.113 11.23 132.864 11.152 132.546 11.092L132.177 11.029C131.895 10.981 131.637 10.906 131.403 10.804C131.169 10.702 130.983 10.564 130.845 10.39C130.707 10.216 130.638 9.997 130.638 9.733C130.638 9.337 130.791 9.028 131.097 8.806C131.403 8.584 131.808 8.473 132.312 8.473C132.81 8.473 133.212 8.587 133.518 8.815C133.83 9.037 134.031 9.352 134.121 9.76L133.455 9.931C133.401 9.613 133.272 9.391 133.068 9.265C132.864 9.133 132.612 9.067 132.312 9.067C132.012 9.067 131.775 9.124 131.601 9.238C131.427 9.346 131.34 9.508 131.34 9.724C131.34 9.934 131.421 10.09 131.583 10.192C131.751 10.288 131.973 10.36 132.249 10.408L132.618 10.471C132.93 10.525 133.209 10.6 133.455 10.696C133.707 10.786 133.905 10.918 134.049 11.092C134.199 11.266 134.274 11.494 134.274 11.776C134.274 12.208 134.112 12.541 133.788 12.775C133.47 13.009 133.041 13.126 132.501 13.126ZM137.247 13.126C136.701 13.126 136.239 13 135.861 12.748C135.489 12.496 135.264 12.097 135.186 11.551L135.861 11.398C135.909 11.686 135.999 11.914 136.131 12.082C136.263 12.244 136.425 12.361 136.617 12.433C136.815 12.499 137.025 12.532 137.247 12.532C137.577 12.532 137.838 12.466 138.03 12.334C138.222 12.202 138.318 12.025 138.318 11.803C138.318 11.575 138.225 11.416 138.039 11.326C137.859 11.23 137.61 11.152 137.292 11.092L136.923 11.029C136.641 10.981 136.383 10.906 136.149 10.804C135.915 10.702 135.729 10.564 135.591 10.39C135.453 10.216 135.384 9.997 135.384 9.733C135.384 9.337 135.537 9.028 135.843 8.806C136.149 8.584 136.554 8.473 137.058 8.473C137.556 8.473 137.958 8.587 138.264 8.815C138.576 9.037 138.777 9.352 138.867 9.76L138.201 9.931C138.147 9.613 138.018 9.391 137.814 9.265C137.61 9.133 137.358 9.067 137.058 9.067C136.758 9.067 136.521 9.124 136.347 9.238C136.173 9.346 136.086 9.508 136.086 9.724C136.086 9.934 136.167 10.09 136.329 10.192C136.497 10.288 136.719 10.36 136.995 10.408L137.364 10.471C137.676 10.525 137.955 10.6 138.201 10.696C138.453 10.786 138.651 10.918 138.795 11.092C138.945 11.266 139.02 11.494 139.02 11.776C139.02 12.208 138.858 12.541 138.534 12.775C138.216 13.009 137.787 13.126 137.247 13.126ZM143.144 13L142.262 8.599H142.982L143.711 12.523H143.837L144.8 8.599H145.979L146.942 12.523H147.068L147.797 8.599H148.517L147.635 13H146.42L145.448 9.076H145.331L144.359 13H143.144ZM149.739 13V8.599H150.45V13H149.739ZM150.099 7.915C149.943 7.915 149.811 7.864 149.703 7.762C149.601 7.66 149.55 7.531 149.55 7.375C149.55 7.213 149.601 7.081 149.703 6.979C149.811 6.877 149.943 6.826 150.099 6.826C150.255 6.826 150.384 6.877 150.486 6.979C150.588 7.081 150.639 7.213 150.639 7.375C150.639 7.531 150.588 7.66 150.486 7.762C150.384 7.864 150.255 7.915 150.099 7.915ZM153.565 13C153.313 13 153.118 12.931 152.98 12.793C152.848 12.655 152.782 12.466 152.782 12.226V9.22H151.459V8.599H152.782V7.033H153.493V8.599H154.933V9.22H153.493V12.118C153.493 12.298 153.58 12.388 153.754 12.388H154.735V13H153.565ZM156.085 13V6.7H156.796V9.301H156.922C156.982 9.169 157.072 9.046 157.192 8.932C157.318 8.812 157.477 8.713 157.669 8.635C157.867 8.557 158.116 8.518 158.416 8.518C158.746 8.518 159.04 8.59 159.298 8.734C159.562 8.872 159.772 9.076 159.928 9.346C160.084 9.61 160.162 9.94 160.162 10.336V13H159.451V10.39C159.451 9.952 159.34 9.634 159.118 9.436C158.902 9.238 158.608 9.139 158.236 9.139C157.81 9.139 157.462 9.277 157.192 9.553C156.928 9.829 156.796 10.24 156.796 10.786V13H156.085ZM166.175 13.126C165.425 13.126 164.825 12.91 164.375 12.478C163.931 12.04 163.709 11.404 163.709 10.57V9.13C163.709 8.296 163.931 7.663 164.375 7.231C164.825 6.793 165.425 6.574 166.175 6.574C166.931 6.574 167.531 6.793 167.975 7.231C168.425 7.663 168.65 8.296 168.65 9.13V10.57C168.65 11.404 168.425 12.04 167.975 12.478C167.531 12.91 166.931 13.126 166.175 13.126ZM166.175 12.451C166.721 12.451 167.144 12.289 167.444 11.965C167.744 11.635 167.894 11.179 167.894 10.597V9.103C167.894 8.521 167.744 8.068 167.444 7.744C167.144 7.414 166.721 7.249 166.175 7.249C165.635 7.249 165.215 7.414 164.915 7.744C164.615 8.068 164.465 8.521 164.465 9.103V10.597C164.465 11.179 164.615 11.635 164.915 11.965C165.215 12.289 165.635 12.451 166.175 12.451ZM171.619 13.081C171.301 13.081 171.007 13.012 170.737 12.874C170.473 12.736 170.263 12.532 170.107 12.262C169.957 11.986 169.882 11.653 169.882 11.263V8.599H170.593V11.209C170.593 11.647 170.701 11.965 170.917 12.163C171.139 12.361 171.436 12.46 171.808 12.46C172.228 12.46 172.573 12.322 172.843 12.046C173.113 11.77 173.248 11.359 173.248 10.813V8.599H173.959V13H173.266V12.253H173.14C173.044 12.463 172.879 12.655 172.645 12.829C172.411 12.997 172.069 13.081 171.619 13.081ZM175.447 13V8.599H176.14V9.139H176.266C176.344 8.947 176.464 8.806 176.626 8.716C176.788 8.626 177.001 8.581 177.265 8.581H177.787V9.229H177.22C176.902 9.229 176.644 9.319 176.446 9.499C176.254 9.673 176.158 9.946 176.158 10.318V13H175.447ZM181.124 13V6.7H182.564L184.238 12.523H184.355L186.029 6.7H187.469V13H186.74V7.195H186.614L184.949 13H183.644L181.979 7.195H181.853V13H181.124ZM190.972 13.126C190.528 13.126 190.135 13.033 189.793 12.847C189.457 12.661 189.193 12.4 189.001 12.064C188.815 11.722 188.722 11.32 188.722 10.858V10.741C188.722 10.285 188.815 9.886 189.001 9.544C189.193 9.202 189.457 8.938 189.793 8.752C190.135 8.566 190.528 8.473 190.972 8.473C191.416 8.473 191.806 8.566 192.142 8.752C192.484 8.938 192.748 9.202 192.934 9.544C193.126 9.886 193.222 10.285 193.222 10.741V10.858C193.222 11.32 193.126 11.722 192.934 12.064C192.748 12.4 192.484 12.661 192.142 12.847C191.806 13.033 191.416 13.126 190.972 13.126ZM190.972 12.487C191.44 12.487 191.812 12.34 192.088 12.046C192.37 11.746 192.511 11.344 192.511 10.84V10.759C192.511 10.255 192.37 9.856 192.088 9.562C191.812 9.262 191.44 9.112 190.972 9.112C190.51 9.112 190.138 9.262 189.856 9.562C189.574 9.856 189.433 10.255 189.433 10.759V10.84C189.433 11.344 189.574 11.746 189.856 12.046C190.138 12.34 190.51 12.487 190.972 12.487ZM196.941 13.126C196.485 13.126 196.128 13.039 195.87 12.865C195.618 12.691 195.435 12.493 195.321 12.271H195.195V13H194.502V6.7H195.213V9.292H195.339C195.411 9.154 195.513 9.025 195.645 8.905C195.777 8.779 195.948 8.677 196.158 8.599C196.374 8.515 196.635 8.473 196.941 8.473C197.325 8.473 197.673 8.566 197.985 8.752C198.303 8.932 198.555 9.193 198.741 9.535C198.927 9.871 199.02 10.273 199.02 10.741V10.858C199.02 11.326 198.924 11.731 198.732 12.073C198.546 12.415 198.294 12.676 197.976 12.856C197.664 13.036 197.319 13.126 196.941 13.126ZM196.752 12.496C197.208 12.496 197.577 12.352 197.859 12.064C198.147 11.77 198.291 11.362 198.291 10.84V10.759C198.291 10.237 198.147 9.832 197.859 9.544C197.577 9.25 197.208 9.103 196.752 9.103C196.302 9.103 195.93 9.25 195.636 9.544C195.348 9.832 195.204 10.237 195.204 10.759V10.84C195.204 11.362 195.348 11.77 195.636 12.064C195.93 12.352 196.302 12.496 196.752 12.496ZM200.294 13V8.599H201.005V13H200.294ZM200.654 7.915C200.498 7.915 200.366 7.864 200.258 7.762C200.156 7.66 200.105 7.531 200.105 7.375C200.105 7.213 200.156 7.081 200.258 6.979C200.366 6.877 200.498 6.826 200.654 6.826C200.81 6.826 200.939 6.877 201.041 6.979C201.143 7.081 201.194 7.213 201.194 7.375C201.194 7.531 201.143 7.66 201.041 7.762C200.939 7.864 200.81 7.915 200.654 7.915ZM202.5 13V6.7H203.211V13H202.5ZM206.722 13.126C206.278 13.126 205.888 13.033 205.552 12.847C205.216 12.655 204.955 12.388 204.769 12.046C204.583 11.704 204.49 11.308 204.49 10.858V10.75C204.49 10.294 204.583 9.895 204.769 9.553C204.955 9.211 205.213 8.947 205.543 8.761C205.873 8.569 206.251 8.473 206.677 8.473C207.091 8.473 207.457 8.563 207.775 8.743C208.093 8.917 208.342 9.169 208.522 9.499C208.702 9.829 208.792 10.216 208.792 10.66V10.984H205.201C205.219 11.458 205.372 11.83 205.66 12.1C205.948 12.364 206.308 12.496 206.74 12.496C207.118 12.496 207.409 12.409 207.613 12.235C207.817 12.061 207.973 11.854 208.081 11.614L208.693 11.911C208.603 12.097 208.477 12.283 208.315 12.469C208.159 12.655 207.952 12.811 207.694 12.937C207.442 13.063 207.118 13.126 206.722 13.126ZM205.21 10.399H208.072C208.048 9.991 207.907 9.673 207.649 9.445C207.397 9.217 207.073 9.103 206.677 9.103C206.275 9.103 205.945 9.217 205.687 9.445C205.429 9.673 205.27 9.991 205.21 10.399ZM211.707 13L213.651 6.7H214.983L216.927 13H216.144L215.658 11.407H212.976L212.49 13H211.707ZM213.165 10.723H215.46L214.38 7.159H214.254L213.165 10.723ZM217.898 14.8V8.599H218.591V9.328H218.717C218.831 9.106 219.014 8.908 219.266 8.734C219.524 8.56 219.881 8.473 220.337 8.473C220.715 8.473 221.06 8.566 221.372 8.752C221.69 8.932 221.942 9.19 222.128 9.526C222.32 9.862 222.416 10.267 222.416 10.741V10.858C222.416 11.326 222.323 11.731 222.137 12.073C221.951 12.415 221.699 12.676 221.381 12.856C221.069 13.036 220.721 13.126 220.337 13.126C220.031 13.126 219.77 13.084 219.554 13C219.344 12.922 219.173 12.82 219.041 12.694C218.909 12.568 218.807 12.439 218.735 12.307H218.609V14.8H217.898ZM220.148 12.496C220.604 12.496 220.973 12.352 221.255 12.064C221.543 11.77 221.687 11.362 221.687 10.84V10.759C221.687 10.237 221.543 9.832 221.255 9.544C220.973 9.25 220.604 9.103 220.148 9.103C219.698 9.103 219.326 9.25 219.032 9.544C218.744 9.832 218.6 10.237 218.6 10.759V10.84C218.6 11.362 218.744 11.77 219.032 12.064C219.326 12.352 219.698 12.496 220.148 12.496ZM223.69 14.8V8.599H224.383V9.328H224.509C224.623 9.106 224.806 8.908 225.058 8.734C225.316 8.56 225.673 8.473 226.129 8.473C226.507 8.473 226.852 8.566 227.164 8.752C227.482 8.932 227.734 9.19 227.92 9.526C228.112 9.862 228.208 10.267 228.208 10.741V10.858C228.208 11.326 228.115 11.731 227.929 12.073C227.743 12.415 227.491 12.676 227.173 12.856C226.861 13.036 226.513 13.126 226.129 13.126C225.823 13.126 225.562 13.084 225.346 13C225.136 12.922 224.965 12.82 224.833 12.694C224.701 12.568 224.599 12.439 224.527 12.307H224.401V14.8H223.69ZM225.94 12.496C226.396 12.496 226.765 12.352 227.047 12.064C227.335 11.77 227.479 11.362 227.479 10.84V10.759C227.479 10.237 227.335 9.832 227.047 9.544C226.765 9.25 226.396 9.103 225.94 9.103C225.49 9.103 225.118 9.25 224.824 9.544C224.536 9.832 224.392 10.237 224.392 10.759V10.84C224.392 11.362 224.536 11.77 224.824 12.064C225.118 12.352 225.49 12.496 225.94 12.496Z" fill="#1C1C1C"/>
<rect x="50" y="35" width="178.8" height="20" rx="10" fill="white"/>
<rect x="58" y="39" width="12" height="12" rx="5.4" fill="#2B71FA"/>
<path fill-rule="evenodd" clip-rule="evenodd" d="M67.2652 42.8598C67.4116 43.0063 67.4116 43.2437 67.2652 43.3902L64.0455 46.6098C63.6062 47.0492 62.8938 47.0492 62.4545 46.6098L61.1098 45.2652C60.9634 45.1187 60.9634 44.8813 61.1098 44.7348C61.2563 44.5884 61.4937 44.5884 61.6402 44.7348L62.9848 46.0795C63.1313 46.226 63.3687 46.226 63.5152 46.0795L66.7348 42.8598C66.8813 42.7134 67.1187 42.7134 67.2652 42.8598Z" fill="white"/>
<path d="M75.52 48V41.7H79.399V42.384H76.276V44.49H79.147V45.174H76.276V47.316H79.444V48H75.52ZM80.6183 48V43.599H81.3113V44.346H81.4373C81.5333 44.136 81.6953 43.947 81.9233 43.779C82.1573 43.605 82.4993 43.518 82.9493 43.518C83.2793 43.518 83.5733 43.587 83.8313 43.725C84.0953 43.863 84.3053 44.067 84.4613 44.337C84.6173 44.607 84.6953 44.94 84.6953 45.336V48H83.9843V45.39C83.9843 44.952 83.8733 44.634 83.6513 44.436C83.4353 44.238 83.1413 44.139 82.7693 44.139C82.3433 44.139 81.9953 44.277 81.7253 44.553C81.4613 44.829 81.3293 45.24 81.3293 45.786V48H80.6183ZM86.1379 48V41.7H86.8489V44.301H86.9749C87.0349 44.169 87.1249 44.046 87.2449 43.932C87.3709 43.812 87.5299 43.713 87.7219 43.635C87.9199 43.557 88.1689 43.518 88.4689 43.518C88.7989 43.518 89.0929 43.59 89.3509 43.734C89.6149 43.872 89.8249 44.076 89.9809 44.346C90.1369 44.61 90.2149 44.94 90.2149 45.336V48H89.5039V45.39C89.5039 44.952 89.3929 44.634 89.1709 44.436C88.9549 44.238 88.6609 44.139 88.2889 44.139C87.8629 44.139 87.5149 44.277 87.2449 44.553C86.9809 44.829 86.8489 45.24 86.8489 45.786V48H86.1379ZM93.0074 48.126C92.7014 48.126 92.4224 48.072 92.1704 47.964C91.9184 47.856 91.7204 47.7 91.5764 47.496C91.4324 47.292 91.3604 47.043 91.3604 46.749C91.3604 46.449 91.4324 46.203 91.5764 46.011C91.7204 45.813 91.9184 45.666 92.1704 45.57C92.4224 45.468 92.7044 45.417 93.0164 45.417H94.5014V45.093C94.5014 44.781 94.4084 44.535 94.2224 44.355C94.0424 44.175 93.7724 44.085 93.4124 44.085C93.0584 44.085 92.7824 44.172 92.5844 44.346C92.3864 44.514 92.2514 44.742 92.1794 45.03L91.5134 44.814C91.5854 44.568 91.6994 44.346 91.8554 44.148C92.0114 43.944 92.2184 43.782 92.4764 43.662C92.7404 43.536 93.0554 43.473 93.4214 43.473C93.9854 43.473 94.4234 43.62 94.7354 43.914C95.0474 44.202 95.2034 44.61 95.2034 45.138V47.127C95.2034 47.307 95.2874 47.397 95.4554 47.397H95.8604V48H95.2394C95.0414 48 94.8824 47.946 94.7624 47.838C94.6424 47.724 94.5824 47.574 94.5824 47.388V47.343H94.4744C94.4084 47.457 94.3184 47.577 94.2044 47.703C94.0964 47.823 93.9464 47.922 93.7544 48C93.5624 48.084 93.3134 48.126 93.0074 48.126ZM93.0884 47.514C93.5084 47.514 93.8474 47.391 94.1054 47.145C94.3694 46.893 94.5014 46.542 94.5014 46.092V45.993H93.0434C92.7614 45.993 92.5274 46.056 92.3414 46.182C92.1614 46.302 92.0714 46.485 92.0714 46.731C92.0714 46.977 92.1644 47.169 92.3504 47.307C92.5424 47.445 92.7884 47.514 93.0884 47.514ZM96.8342 48V43.599H97.5272V44.346H97.6532C97.7492 44.136 97.9112 43.947 98.1392 43.779C98.3732 43.605 98.7152 43.518 99.1652 43.518C99.4952 43.518 99.7892 43.587 100.047 43.725C100.311 43.863 100.521 44.067 100.677 44.337C100.833 44.607 100.911 44.94 100.911 45.336V48H100.2V45.39C100.2 44.952 100.089 44.634 99.8672 44.436C99.6512 44.238 99.3572 44.139 98.9852 44.139C98.5592 44.139 98.2112 44.277 97.9412 44.553C97.6772 44.829 97.5452 45.24 97.5452 45.786V48H96.8342ZM104.379 48.126C103.953 48.126 103.569 48.036 103.227 47.856C102.891 47.67 102.624 47.406 102.426 47.064C102.234 46.722 102.138 46.317 102.138 45.849V45.75C102.138 45.276 102.234 44.871 102.426 44.535C102.624 44.193 102.891 43.932 103.227 43.752C103.569 43.566 103.953 43.473 104.379 43.473C104.799 43.473 105.156 43.551 105.45 43.707C105.75 43.863 105.984 44.07 106.152 44.328C106.326 44.586 106.437 44.862 106.485 45.156L105.792 45.3C105.762 45.084 105.69 44.886 105.576 44.706C105.468 44.526 105.315 44.382 105.117 44.274C104.919 44.166 104.676 44.112 104.388 44.112C104.094 44.112 103.83 44.178 103.596 44.31C103.368 44.442 103.185 44.631 103.047 44.877C102.915 45.123 102.849 45.417 102.849 45.759V45.84C102.849 46.182 102.915 46.476 103.047 46.722C103.185 46.968 103.368 47.157 103.596 47.289C103.83 47.421 104.094 47.487 104.388 47.487C104.826 47.487 105.159 47.373 105.387 47.145C105.621 46.917 105.765 46.635 105.819 46.299L106.521 46.452C106.455 46.74 106.335 47.013 106.161 47.271C105.987 47.529 105.75 47.736 105.45 47.892C105.156 48.048 104.799 48.126 104.379 48.126ZM109.749 48.126C109.305 48.126 108.915 48.033 108.579 47.847C108.243 47.655 107.982 47.388 107.796 47.046C107.61 46.704 107.517 46.308 107.517 45.858V45.75C107.517 45.294 107.61 44.895 107.796 44.553C107.982 44.211 108.24 43.947 108.57 43.761C108.9 43.569 109.278 43.473 109.704 43.473C110.118 43.473 110.484 43.563 110.802 43.743C111.12 43.917 111.369 44.169 111.549 44.499C111.729 44.829 111.819 45.216 111.819 45.66V45.984H108.228C108.246 46.458 108.399 46.83 108.687 47.1C108.975 47.364 109.335 47.496 109.767 47.496C110.145 47.496 110.436 47.409 110.64 47.235C110.844 47.061 111 46.854 111.108 46.614L111.72 46.911C111.63 47.097 111.504 47.283 111.342 47.469C111.186 47.655 110.979 47.811 110.721 47.937C110.469 48.063 110.145 48.126 109.749 48.126ZM108.237 45.399H111.099C111.075 44.991 110.934 44.673 110.676 44.445C110.424 44.217 110.1 44.103 109.704 44.103C109.302 44.103 108.972 44.217 108.714 44.445C108.456 44.673 108.297 44.991 108.237 45.399ZM114.922 48.126C114.544 48.126 114.196 48.036 113.878 47.856C113.56 47.676 113.308 47.415 113.122 47.073C112.936 46.731 112.843 46.326 112.843 45.858V45.741C112.843 45.273 112.936 44.871 113.122 44.535C113.308 44.193 113.557 43.932 113.869 43.752C114.187 43.566 114.538 43.473 114.922 43.473C115.228 43.473 115.486 43.515 115.696 43.599C115.912 43.677 116.086 43.779 116.218 43.905C116.35 44.025 116.452 44.154 116.524 44.292H116.65V41.7H117.361V48H116.668V47.271H116.542C116.422 47.493 116.236 47.691 115.984 47.865C115.732 48.039 115.378 48.126 114.922 48.126ZM115.111 47.496C115.567 47.496 115.936 47.352 116.218 47.064C116.506 46.77 116.65 46.362 116.65 45.84V45.759C116.65 45.237 116.506 44.832 116.218 44.544C115.936 44.25 115.567 44.103 115.111 44.103C114.661 44.103 114.289 44.25 113.995 44.544C113.707 44.832 113.563 45.237 113.563 45.759V45.84C113.563 46.362 113.707 46.77 113.995 47.064C114.289 47.352 114.661 47.496 115.111 47.496ZM123.223 48.126C122.767 48.126 122.359 48.045 121.999 47.883C121.639 47.721 121.354 47.478 121.144 47.154C120.94 46.824 120.838 46.413 120.838 45.921V45.732H121.585V45.921C121.585 46.443 121.738 46.833 122.044 47.091C122.35 47.343 122.743 47.469 123.223 47.469C123.715 47.469 124.09 47.358 124.348 47.136C124.606 46.914 124.735 46.635 124.735 46.299C124.735 46.065 124.675 45.879 124.555 45.741C124.441 45.603 124.279 45.492 124.069 45.408C123.859 45.318 123.613 45.24 123.331 45.174L122.863 45.057C122.497 44.961 122.173 44.844 121.891 44.706C121.609 44.568 121.387 44.388 121.225 44.166C121.069 43.938 120.991 43.647 120.991 43.293C120.991 42.939 121.078 42.633 121.252 42.375C121.432 42.117 121.681 41.919 121.999 41.781C122.323 41.643 122.695 41.574 123.115 41.574C123.541 41.574 123.922 41.649 124.258 41.799C124.6 41.943 124.867 42.159 125.059 42.447C125.257 42.729 125.356 43.086 125.356 43.518V43.896H124.609V43.518C124.609 43.212 124.543 42.966 124.411 42.78C124.285 42.594 124.108 42.456 123.88 42.366C123.658 42.276 123.403 42.231 123.115 42.231C122.701 42.231 122.368 42.324 122.116 42.51C121.864 42.69 121.738 42.948 121.738 43.284C121.738 43.506 121.792 43.686 121.9 43.824C122.008 43.962 122.161 44.076 122.359 44.166C122.557 44.25 122.794 44.325 123.07 44.391L123.538 44.508C123.904 44.586 124.231 44.694 124.519 44.832C124.813 44.964 125.047 45.147 125.221 45.381C125.395 45.609 125.482 45.909 125.482 46.281C125.482 46.653 125.389 46.977 125.203 47.253C125.017 47.529 124.753 47.745 124.411 47.901C124.075 48.051 123.679 48.126 123.223 48.126ZM128.689 48.126C128.245 48.126 127.855 48.033 127.519 47.847C127.183 47.655 126.922 47.388 126.736 47.046C126.55 46.704 126.457 46.308 126.457 45.858V45.75C126.457 45.294 126.55 44.895 126.736 44.553C126.922 44.211 127.18 43.947 127.51 43.761C127.84 43.569 128.218 43.473 128.644 43.473C129.058 43.473 129.424 43.563 129.742 43.743C130.06 43.917 130.309 44.169 130.489 44.499C130.669 44.829 130.759 45.216 130.759 45.66V45.984H127.168C127.186 46.458 127.339 46.83 127.627 47.1C127.915 47.364 128.275 47.496 128.707 47.496C129.085 47.496 129.376 47.409 129.58 47.235C129.784 47.061 129.94 46.854 130.048 46.614L130.66 46.911C130.57 47.097 130.444 47.283 130.282 47.469C130.126 47.655 129.919 47.811 129.661 47.937C129.409 48.063 129.085 48.126 128.689 48.126ZM127.177 45.399H130.039C130.015 44.991 129.874 44.673 129.616 44.445C129.364 44.217 129.04 44.103 128.644 44.103C128.242 44.103 127.912 44.217 127.654 44.445C127.396 44.673 127.237 44.991 127.177 45.399ZM134.024 48.126C133.598 48.126 133.214 48.036 132.872 47.856C132.536 47.67 132.269 47.406 132.071 47.064C131.879 46.722 131.783 46.317 131.783 45.849V45.75C131.783 45.276 131.879 44.871 132.071 44.535C132.269 44.193 132.536 43.932 132.872 43.752C133.214 43.566 133.598 43.473 134.024 43.473C134.444 43.473 134.801 43.551 135.095 43.707C135.395 43.863 135.629 44.07 135.797 44.328C135.971 44.586 136.082 44.862 136.13 45.156L135.437 45.3C135.407 45.084 135.335 44.886 135.221 44.706C135.113 44.526 134.96 44.382 134.762 44.274C134.564 44.166 134.321 44.112 134.033 44.112C133.739 44.112 133.475 44.178 133.241 44.31C133.013 44.442 132.83 44.631 132.692 44.877C132.56 45.123 132.494 45.417 132.494 45.759V45.84C132.494 46.182 132.56 46.476 132.692 46.722C132.83 46.968 133.013 47.157 133.241 47.289C133.475 47.421 133.739 47.487 134.033 47.487C134.471 47.487 134.804 47.373 135.032 47.145C135.266 46.917 135.41 46.635 135.464 46.299L136.166 46.452C136.1 46.74 135.98 47.013 135.806 47.271C135.632 47.529 135.395 47.736 135.095 47.892C134.801 48.048 134.444 48.126 134.024 48.126ZM139.061 48.081C138.743 48.081 138.449 48.012 138.179 47.874C137.915 47.736 137.705 47.532 137.549 47.262C137.399 46.986 137.324 46.653 137.324 46.263V43.599H138.035V46.209C138.035 46.647 138.143 46.965 138.359 47.163C138.581 47.361 138.878 47.46 139.25 47.46C139.67 47.46 140.015 47.322 140.285 47.046C140.555 46.77 140.69 46.359 140.69 45.813V43.599H141.401V48H140.708V47.253H140.582C140.486 47.463 140.321 47.655 140.087 47.829C139.853 47.997 139.511 48.081 139.061 48.081ZM142.889 48V43.599H143.582V44.139H143.708C143.786 43.947 143.906 43.806 144.068 43.716C144.23 43.626 144.443 43.581 144.707 43.581H145.229V44.229H144.662C144.344 44.229 144.086 44.319 143.888 44.499C143.696 44.673 143.6 44.946 143.6 45.318V48H142.889ZM146.281 48V43.599H146.992V48H146.281ZM146.641 42.915C146.485 42.915 146.353 42.864 146.245 42.762C146.143 42.66 146.092 42.531 146.092 42.375C146.092 42.213 146.143 42.081 146.245 41.979C146.353 41.877 146.485 41.826 146.641 41.826C146.797 41.826 146.926 41.877 147.028 41.979C147.13 42.081 147.181 42.213 147.181 42.375C147.181 42.531 147.13 42.66 147.028 42.762C146.926 42.864 146.797 42.915 146.641 42.915ZM150.107 48C149.855 48 149.66 47.931 149.522 47.793C149.39 47.655 149.324 47.466 149.324 47.226V44.22H148.001V43.599H149.324V42.033H150.035V43.599H151.475V44.22H150.035V47.118C150.035 47.298 150.122 47.388 150.296 47.388H151.277V48H150.107ZM153.158 49.8V49.17H155.678C155.852 49.17 155.939 49.08 155.939 48.9V47.298H155.813C155.753 47.424 155.66 47.55 155.534 47.676C155.414 47.796 155.255 47.895 155.057 47.973C154.859 48.045 154.61 48.081 154.31 48.081C153.992 48.081 153.698 48.012 153.428 47.874C153.164 47.736 152.954 47.532 152.798 47.262C152.648 46.992 152.573 46.662 152.573 46.272V43.599H153.284V46.218C153.284 46.65 153.392 46.965 153.608 47.163C153.83 47.361 154.127 47.46 154.499 47.46C154.919 47.46 155.264 47.322 155.534 47.046C155.804 46.77 155.939 46.359 155.939 45.813V43.599H156.65V49.026C156.65 49.266 156.581 49.455 156.443 49.593C156.311 49.731 156.116 49.8 155.858 49.8H153.158ZM160.422 48V41.7H161.178V48H160.422ZM162.647 48V43.599H163.34V44.346H163.466C163.562 44.136 163.724 43.947 163.952 43.779C164.186 43.605 164.528 43.518 164.978 43.518C165.308 43.518 165.602 43.587 165.86 43.725C166.124 43.863 166.334 44.067 166.49 44.337C166.646 44.607 166.724 44.94 166.724 45.336V48H166.013V45.39C166.013 44.952 165.902 44.634 165.68 44.436C165.464 44.238 165.17 44.139 164.798 44.139C164.372 44.139 164.024 44.277 163.754 44.553C163.49 44.829 163.358 45.24 163.358 45.786V48H162.647ZM168.907 48V44.22H167.557V43.599H168.907V42.474C168.907 42.234 168.973 42.045 169.105 41.907C169.243 41.769 169.438 41.7 169.69 41.7H170.797V42.312H169.888C169.708 42.312 169.618 42.402 169.618 42.582V43.599H171.004V44.22H169.618V48H168.907ZM172.025 48V43.599H172.718V44.139H172.844C172.922 43.947 173.042 43.806 173.204 43.716C173.366 43.626 173.579 43.581 173.843 43.581H174.365V44.229H173.798C173.48 44.229 173.222 44.319 173.024 44.499C172.832 44.673 172.736 44.946 172.736 45.318V48H172.025ZM176.618 48.126C176.312 48.126 176.033 48.072 175.781 47.964C175.529 47.856 175.331 47.7 175.187 47.496C175.043 47.292 174.971 47.043 174.971 46.749C174.971 46.449 175.043 46.203 175.187 46.011C175.331 45.813 175.529 45.666 175.781 45.57C176.033 45.468 176.315 45.417 176.627 45.417H178.112V45.093C178.112 44.781 178.019 44.535 177.833 44.355C177.653 44.175 177.383 44.085 177.023 44.085C176.669 44.085 176.393 44.172 176.195 44.346C175.997 44.514 175.862 44.742 175.79 45.03L175.124 44.814C175.196 44.568 175.31 44.346 175.466 44.148C175.622 43.944 175.829 43.782 176.087 43.662C176.351 43.536 176.666 43.473 177.032 43.473C177.596 43.473 178.034 43.62 178.346 43.914C178.658 44.202 178.814 44.61 178.814 45.138V47.127C178.814 47.307 178.898 47.397 179.066 47.397H179.471V48H178.85C178.652 48 178.493 47.946 178.373 47.838C178.253 47.724 178.193 47.574 178.193 47.388V47.343H178.085C178.019 47.457 177.929 47.577 177.815 47.703C177.707 47.823 177.557 47.922 177.365 48C177.173 48.084 176.924 48.126 176.618 48.126ZM176.699 47.514C177.119 47.514 177.458 47.391 177.716 47.145C177.98 46.893 178.112 46.542 178.112 46.092V45.993H176.654C176.372 45.993 176.138 46.056 175.952 46.182C175.772 46.302 175.682 46.485 175.682 46.731C175.682 46.977 175.775 47.169 175.961 47.307C176.153 47.445 176.399 47.514 176.699 47.514ZM182.182 48.126C181.636 48.126 181.174 48 180.796 47.748C180.424 47.496 180.199 47.097 180.121 46.551L180.796 46.398C180.844 46.686 180.934 46.914 181.066 47.082C181.198 47.244 181.36 47.361 181.552 47.433C181.75 47.499 181.96 47.532 182.182 47.532C182.512 47.532 182.773 47.466 182.965 47.334C183.157 47.202 183.253 47.025 183.253 46.803C183.253 46.575 183.16 46.416 182.974 46.326C182.794 46.23 182.545 46.152 182.227 46.092L181.858 46.029C181.576 45.981 181.318 45.906 181.084 45.804C180.85 45.702 180.664 45.564 180.526 45.39C180.388 45.216 180.319 44.997 180.319 44.733C180.319 44.337 180.472 44.028 180.778 43.806C181.084 43.584 181.489 43.473 181.993 43.473C182.491 43.473 182.893 43.587 183.199 43.815C183.511 44.037 183.712 44.352 183.802 44.76L183.136 44.931C183.082 44.613 182.953 44.391 182.749 44.265C182.545 44.133 182.293 44.067 181.993 44.067C181.693 44.067 181.456 44.124 181.282 44.238C181.108 44.346 181.021 44.508 181.021 44.724C181.021 44.934 181.102 45.09 181.264 45.192C181.432 45.288 181.654 45.36 181.93 45.408L182.299 45.471C182.611 45.525 182.89 45.6 183.136 45.696C183.388 45.786 183.586 45.918 183.73 46.092C183.88 46.266 183.955 46.494 183.955 46.776C183.955 47.208 183.793 47.541 183.469 47.775C183.151 48.009 182.722 48.126 182.182 48.126ZM186.679 48C186.427 48 186.232 47.931 186.094 47.793C185.962 47.655 185.896 47.466 185.896 47.226V44.22H184.573V43.599H185.896V42.033H186.607V43.599H188.047V44.22H186.607V47.118C186.607 47.298 186.694 47.388 186.868 47.388H187.849V48H186.679ZM189.198 48V43.599H189.891V44.139H190.017C190.095 43.947 190.215 43.806 190.377 43.716C190.539 43.626 190.752 43.581 191.016 43.581H191.538V44.229H190.971C190.653 44.229 190.395 44.319 190.197 44.499C190.005 44.673 189.909 44.946 189.909 45.318V48H189.198ZM194.274 48.081C193.956 48.081 193.662 48.012 193.392 47.874C193.128 47.736 192.918 47.532 192.762 47.262C192.612 46.986 192.537 46.653 192.537 46.263V43.599H193.248V46.209C193.248 46.647 193.356 46.965 193.572 47.163C193.794 47.361 194.091 47.46 194.463 47.46C194.883 47.46 195.228 47.322 195.498 47.046C195.768 46.77 195.903 46.359 195.903 45.813V43.599H196.614V48H195.921V47.253H195.795C195.699 47.463 195.534 47.655 195.3 47.829C195.066 47.997 194.724 48.081 194.274 48.081ZM200.127 48.126C199.701 48.126 199.317 48.036 198.975 47.856C198.639 47.67 198.372 47.406 198.174 47.064C197.982 46.722 197.886 46.317 197.886 45.849V45.75C197.886 45.276 197.982 44.871 198.174 44.535C198.372 44.193 198.639 43.932 198.975 43.752C199.317 43.566 199.701 43.473 200.127 43.473C200.547 43.473 200.904 43.551 201.198 43.707C201.498 43.863 201.732 44.07 201.9 44.328C202.074 44.586 202.185 44.862 202.233 45.156L201.54 45.3C201.51 45.084 201.438 44.886 201.324 44.706C201.216 44.526 201.063 44.382 200.865 44.274C200.667 44.166 200.424 44.112 200.136 44.112C199.842 44.112 199.578 44.178 199.344 44.31C199.116 44.442 198.933 44.631 198.795 44.877C198.663 45.123 198.597 45.417 198.597 45.759V45.84C198.597 46.182 198.663 46.476 198.795 46.722C198.933 46.968 199.116 47.157 199.344 47.289C199.578 47.421 199.842 47.487 200.136 47.487C200.574 47.487 200.907 47.373 201.135 47.145C201.369 46.917 201.513 46.635 201.567 46.299L202.269 46.452C202.203 46.74 202.083 47.013 201.909 47.271C201.735 47.529 201.498 47.736 201.198 47.892C200.904 48.048 200.547 48.126 200.127 48.126ZM204.916 48C204.664 48 204.469 47.931 204.331 47.793C204.199 47.655 204.133 47.466 204.133 47.226V44.22H202.81V43.599H204.133V42.033H204.844V43.599H206.284V44.22H204.844V47.118C204.844 47.298 204.931 47.388 205.105 47.388H206.086V48H204.916ZM209.119 48.081C208.801 48.081 208.507 48.012 208.237 47.874C207.973 47.736 207.763 47.532 207.607 47.262C207.457 46.986 207.382 46.653 207.382 46.263V43.599H208.093V46.209C208.093 46.647 208.201 46.965 208.417 47.163C208.639 47.361 208.936 47.46 209.308 47.46C209.728 47.46 210.073 47.322 210.343 47.046C210.613 46.77 210.748 46.359 210.748 45.813V43.599H211.459V48H210.766V47.253H210.64C210.544 47.463 210.379 47.655 210.145 47.829C209.911 47.997 209.569 48.081 209.119 48.081ZM212.946 48V43.599H213.639V44.139H213.765C213.843 43.947 213.963 43.806 214.125 43.716C214.287 43.626 214.5 43.581 214.764 43.581H215.286V44.229H214.719C214.401 44.229 214.143 44.319 213.945 44.499C213.753 44.673 213.657 44.946 213.657 45.318V48H212.946ZM218.197 48.126C217.753 48.126 217.363 48.033 217.027 47.847C216.691 47.655 216.43 47.388 216.244 47.046C216.058 46.704 215.965 46.308 215.965 45.858V45.75C215.965 45.294 216.058 44.895 216.244 44.553C216.43 44.211 216.688 43.947 217.018 43.761C217.348 43.569 217.726 43.473 218.152 43.473C218.566 43.473 218.932 43.563 219.25 43.743C219.568 43.917 219.817 44.169 219.997 44.499C220.177 44.829 220.267 45.216 220.267 45.66V45.984H216.676C216.694 46.458 216.847 46.83 217.135 47.1C217.423 47.364 217.783 47.496 218.215 47.496C218.593 47.496 218.884 47.409 219.088 47.235C219.292 47.061 219.448 46.854 219.556 46.614L220.168 46.911C220.078 47.097 219.952 47.283 219.79 47.469C219.634 47.655 219.427 47.811 219.169 47.937C218.917 48.063 218.593 48.126 218.197 48.126ZM216.685 45.399H219.547C219.523 44.991 219.382 44.673 219.124 44.445C218.872 44.217 218.548 44.103 218.152 44.103C217.75 44.103 217.42 44.217 217.162 44.445C216.904 44.673 216.745 44.991 216.685 45.399Z" fill="#1C1C1C"/>
</svg>
