<svg width="29" height="28" viewBox="0 0 29 28" fill="none" xmlns="http://www.w3.org/2000/svg">
<rect x="0.10144" width="28" height="28" rx="14" fill="#F88E12"/>
<path fill-rule="evenodd" clip-rule="evenodd" d="M8.35086 12.722C7.99798 12.722 7.71191 13.0081 7.71191 13.361V17.1947C7.71191 18.2533 8.57011 19.1115 9.62875 19.1115H18.574C19.6326 19.1115 20.4908 18.2533 20.4908 17.1947V13.361C20.4908 13.0081 20.2048 12.722 19.8519 12.722H8.35086ZM9.62875 15.2778C9.27587 15.2778 8.9898 15.5639 8.9898 15.9168C8.9898 16.2697 9.27587 16.5557 9.62875 16.5557H13.4624C13.8153 16.5557 14.1014 16.2697 14.1014 15.9168C14.1014 15.5639 13.8153 15.2778 13.4624 15.2778H9.62875Z" fill="white"/>
<path d="M7.71191 10.8053C7.71191 9.74662 8.57011 8.88843 9.62875 8.88843H18.574C19.6326 8.88843 20.4908 9.74662 20.4908 10.8053C20.4908 11.1581 20.2048 11.4442 19.8519 11.4442H8.35086C7.99798 11.4442 7.71191 11.1581 7.71191 10.8053Z" fill="white"/>
</svg>
