<svg width="32" height="33" viewBox="0 0 32 33" fill="none" xmlns="http://www.w3.org/2000/svg">
<path d="M28 16.3647C28 16.63 27.8946 16.8843 27.7071 17.0719C27.5196 17.2594 27.2652 17.3647 27 17.3647H5C4.73478 17.3647 4.48043 17.2594 4.29289 17.0719C4.10536 16.8843 4 16.63 4 16.3647C4 16.0995 4.10536 15.8452 4.29289 15.6576C4.48043 15.4701 4.73478 15.3647 5 15.3647H27C27.2652 15.3647 27.5196 15.4701 27.7071 15.6576C27.8946 15.8452 28 16.0995 28 16.3647ZM5 9.36475H27C27.2652 9.36475 27.5196 9.25939 27.7071 9.07185C27.8946 8.88432 28 8.62996 28 8.36475C28 8.09953 27.8946 7.84518 27.7071 7.65764C27.5196 7.4701 27.2652 7.36475 27 7.36475H5C4.73478 7.36475 4.48043 7.4701 4.29289 7.65764C4.10536 7.84518 4 8.09953 4 8.36475C4 8.62996 4.10536 8.88432 4.29289 9.07185C4.48043 9.25939 4.73478 9.36475 5 9.36475ZM27 23.3647H5C4.73478 23.3647 4.48043 23.4701 4.29289 23.6576C4.10536 23.8452 4 24.0995 4 24.3647C4 24.63 4.10536 24.8843 4.29289 25.0719C4.48043 25.2594 4.73478 25.3647 5 25.3647H27C27.2652 25.3647 27.5196 25.2594 27.7071 25.0719C27.8946 24.8843 28 24.63 28 24.3647C28 24.0995 27.8946 23.8452 27.7071 23.6576C27.5196 23.4701 27.2652 23.3647 27 23.3647Z" fill="#1C1C1C"/>
</svg>
