<svg width="25" height="25" viewBox="0 0 25 25" fill="none" xmlns="http://www.w3.org/2000/svg">
<path d="M15.5 12.5C15.5 13.0933 15.3241 13.6734 14.9944 14.1667C14.6648 14.6601 14.1962 15.0446 13.6481 15.2716C13.0999 15.4987 12.4967 15.5581 11.9147 15.4424C11.3328 15.3266 10.7982 15.0409 10.3787 14.6213C9.95912 14.2018 9.6734 13.6672 9.55764 13.0853C9.44189 12.5033 9.5013 11.9001 9.72836 11.3519C9.95542 10.8038 10.3399 10.3352 10.8333 10.0056C11.3266 9.67595 11.9067 9.5 12.5 9.5C13.2956 9.5 14.0587 9.81607 14.6213 10.3787C15.1839 10.9413 15.5 11.7044 15.5 12.5ZM19.25 6.5C19.4088 7.43686 19.8551 8.30113 20.527 8.97304C21.1989 9.64494 22.0631 10.0912 23 10.25V6.5H19.25ZM19.25 18.5H23V14.75C22.0631 14.9088 21.1989 15.3551 20.527 16.027C19.8551 16.6989 19.4088 17.5631 19.25 18.5ZM2 14.75V18.5H5.75C5.59121 17.5631 5.14494 16.6989 4.47304 16.027C3.80113 15.3551 2.93686 14.9088 2 14.75ZM2 10.25C2.93686 10.0912 3.80113 9.64494 4.47304 8.97304C5.14494 8.30113 5.59121 7.43686 5.75 6.5H2V10.25Z" fill="#1C1C1C" fill-opacity="0.1"/>
<path d="M12.5 8.75C11.7583 8.75 11.0333 8.96993 10.4166 9.38199C9.79993 9.79404 9.31928 10.3797 9.03545 11.0649C8.75162 11.7502 8.67736 12.5042 8.82205 13.2316C8.96675 13.959 9.3239 14.6272 9.84835 15.1517C10.3728 15.6761 11.041 16.0333 11.7684 16.1779C12.4958 16.3226 13.2498 16.2484 13.9351 15.9645C14.6203 15.6807 15.206 15.2001 15.618 14.5834C16.0301 13.9667 16.25 13.2417 16.25 12.5C16.25 11.5054 15.8549 10.5516 15.1517 9.84835C14.4484 9.14509 13.4946 8.75 12.5 8.75ZM12.5 14.75C12.055 14.75 11.62 14.618 11.25 14.3708C10.88 14.1236 10.5916 13.7722 10.4213 13.361C10.251 12.9499 10.2064 12.4975 10.2932 12.061C10.38 11.6246 10.5943 11.2237 10.909 10.909C11.2237 10.5943 11.6246 10.38 12.061 10.2932C12.4975 10.2064 12.9499 10.251 13.361 10.4213C13.7722 10.5916 14.1236 10.88 14.3708 11.25C14.618 11.62 14.75 12.055 14.75 12.5C14.75 13.0967 14.5129 13.669 14.091 14.091C13.669 14.5129 13.0967 14.75 12.5 14.75ZM23 5.75H2C1.80109 5.75 1.61032 5.82902 1.46967 5.96967C1.32902 6.11032 1.25 6.30109 1.25 6.5V18.5C1.25 18.6989 1.32902 18.8897 1.46967 19.0303C1.61032 19.171 1.80109 19.25 2 19.25H23C23.1989 19.25 23.3897 19.171 23.5303 19.0303C23.671 18.8897 23.75 18.6989 23.75 18.5V6.5C23.75 6.30109 23.671 6.11032 23.5303 5.96967C23.3897 5.82902 23.1989 5.75 23 5.75ZM2.75 7.25H4.75344C4.36662 8.14959 3.64959 8.86662 2.75 9.25344V7.25ZM2.75 17.75V15.7466C3.64959 16.1334 4.36662 16.8504 4.75344 17.75H2.75ZM22.25 17.75H20.2466C20.6334 16.8504 21.3504 16.1334 22.25 15.7466V17.75ZM22.25 14.1547C21.3984 14.4065 20.6233 14.8674 19.9953 15.4953C19.3674 16.1233 18.9065 16.8984 18.6547 17.75H6.34531C6.0935 16.8984 5.63263 16.1233 5.00467 15.4953C4.37671 14.8674 3.60162 14.4065 2.75 14.1547V10.8453C3.60162 10.5935 4.37671 10.1326 5.00467 9.50467C5.63263 8.87671 6.0935 8.10162 6.34531 7.25H18.6547C18.9065 8.10162 19.3674 8.87671 19.9953 9.50467C20.6233 10.1326 21.3984 10.5935 22.25 10.8453V14.1547ZM22.25 9.25344C21.3504 8.86662 20.6334 8.14959 20.2466 7.25H22.25V9.25344Z" fill="#1C1C1C"/>
</svg>
