<svg width="144" height="35" viewBox="0 0 144 35" fill="none" xmlns="http://www.w3.org/2000/svg">
<g clip-path="url(#clip0_87_364)">
<path d="M43.9286 23.8346L54.0526 23.8346L54.0526 20.7852L47.5269 20.7852L47.5269 9.29907L43.9286 9.29907L43.9286 23.8346Z" fill="#1C1C1C"/>
<path d="M60.0507 21.8017C58.6073 21.8017 57.8551 20.5413 57.8551 18.6506C57.8551 16.76 58.6073 15.4792 60.0507 15.4792C61.4941 15.4792 62.2666 16.76 62.2666 18.6506C62.2666 20.5413 61.4941 21.8017 60.0507 21.8017ZM60.071 24.1599C63.4253 24.1599 65.6209 21.7814 65.6209 18.6506C65.6209 15.5199 63.4253 13.1414 60.071 13.1414C56.737 13.1414 54.5007 15.5199 54.5007 18.6506C54.5007 21.7814 56.737 24.1599 60.071 24.1599Z" fill="#1C1C1C"/>
<path d="M71.4272 27.4328C72.9722 27.4328 74.3343 27.0872 75.2491 26.274C76.0826 25.5218 76.6315 24.3833 76.6315 22.818L76.6315 13.4258L73.4601 13.4258L73.4601 14.5439L73.4195 14.5439C72.8096 13.6697 71.8744 13.1208 70.492 13.1208C67.9102 13.1208 66.1212 15.2758 66.1212 18.3252C66.1212 21.5169 68.2965 23.2652 70.6343 23.2652C71.8948 23.2652 72.6876 22.757 73.2975 22.0658L73.3788 22.0658L73.3788 23.1026C73.3788 24.363 72.7893 25.0949 71.3865 25.0949C70.2887 25.0949 69.7399 24.6273 69.5569 24.0784L66.3448 24.0784C66.6701 26.2537 68.5607 27.4328 71.4272 27.4328ZM71.4069 20.8054C70.1668 20.8054 69.3536 19.7889 69.3536 18.2235C69.3536 16.6378 70.1668 15.6214 71.4069 15.6214C72.7893 15.6214 73.5211 16.8005 73.5211 18.2032C73.5211 19.6669 72.8502 20.8054 71.4069 20.8054Z" fill="#1C1C1C"/>
<path d="M83.1523 21.8017C81.709 21.8017 80.9568 20.5413 80.9568 18.6506C80.9568 16.76 81.709 15.4792 83.1523 15.4792C84.5957 15.4792 85.3683 16.76 85.3683 18.6506C85.3683 20.5413 84.5957 21.8017 83.1523 21.8017ZM83.1727 24.1599C86.527 24.1599 88.7226 21.7814 88.7226 18.6506C88.7226 15.5199 86.527 13.1414 83.1727 13.1414C79.8387 13.1414 77.6024 15.5199 77.6024 18.6506C77.6024 21.7814 79.8387 24.1599 83.1727 24.1599Z" fill="#1C1C1C"/>
<path d="M89.6899 23.8346L93.0036 23.8346L93.0036 13.4259L89.6899 13.4259L89.6899 23.8346ZM89.6899 11.9826L93.0036 11.9826L93.0036 9.29907L89.6899 9.29907L89.6899 11.9826Z" fill="#1C1C1C"/>
<path d="M94.442 27.2701L97.7557 27.2701L97.7557 22.757L97.7964 22.757C98.4469 23.6312 99.4024 24.1597 100.744 24.1597C103.468 24.1597 105.278 22.0048 105.278 18.6301C105.278 15.4994 103.59 13.1208 100.825 13.1208C99.4024 13.1208 98.3859 13.7511 97.6744 14.6862L97.6134 14.6862L97.6134 13.4258L94.442 13.4258L94.442 27.2701ZM99.8903 21.5982C98.4672 21.5982 97.6541 20.4394 97.6541 18.7521C97.6541 17.0648 98.3859 15.784 99.8293 15.784C101.252 15.784 101.923 16.9631 101.923 18.7521C101.923 20.5208 101.151 21.5982 99.8903 21.5982Z" fill="#1C1C1C"/>
<path d="M110.672 24.1597C113.397 24.1597 115.409 22.9806 115.409 20.7037C115.409 18.0406 113.254 17.573 111.425 17.268C110.103 17.0241 108.924 16.9224 108.924 16.1906C108.924 15.5401 109.554 15.2351 110.368 15.2351C111.282 15.2351 111.913 15.5197 112.035 16.4549L115.084 16.4549C114.921 14.4016 113.336 13.1208 110.388 13.1208C107.928 13.1208 105.895 14.2593 105.895 16.4549C105.895 18.8944 107.826 19.3823 109.636 19.6873C111.018 19.9312 112.279 20.0328 112.279 20.968C112.279 21.6389 111.648 22.0048 110.652 22.0048C109.554 22.0048 108.863 21.4966 108.741 20.4598L105.61 20.4598C105.712 22.757 107.623 24.1597 110.672 24.1597Z" fill="#1C1C1C"/>
<path d="M119.911 24.1394C121.354 24.1394 122.269 23.5702 123.021 22.5537L123.082 22.5537L123.082 23.8344L126.253 23.8344L126.253 13.4258L122.94 13.4258L122.94 19.24C122.94 20.4801 122.248 21.3339 121.11 21.3339C120.053 21.3339 119.545 20.7037 119.545 19.5653L119.545 13.4258L116.251 13.4258L116.251 20.2565C116.251 22.574 117.512 24.1394 119.911 24.1394Z" fill="#1C1C1C"/>
<path d="M127.694 23.8344L131.008 23.8344L131.008 17.9999C131.008 16.7598 131.618 15.8856 132.654 15.8856C133.651 15.8856 134.118 16.5362 134.118 17.6543L134.118 23.8344L137.432 23.8344L137.432 17.9999C137.432 16.7598 138.021 15.8856 139.079 15.8856C140.075 15.8856 140.542 16.5362 140.542 17.6543L140.542 23.8344L143.856 23.8344L143.856 17.0648C143.856 14.7269 142.677 13.1208 140.319 13.1208C138.977 13.1208 137.859 13.6901 137.046 14.9505L137.005 14.9505C136.476 13.8324 135.44 13.1208 134.078 13.1208C132.573 13.1208 131.577 13.8324 130.926 14.9098L130.865 14.9098L130.865 13.4258L127.694 13.4258L127.694 23.8344Z" fill="#1C1C1C"/>
<path fill-rule="evenodd" clip-rule="evenodd" d="M17.5207 33.9993C26.877 33.9993 34.4618 26.4145 34.4618 17.0581C34.4618 7.70177 26.877 0.116943 17.5207 0.116943C8.16428 0.116943 0.579468 7.70177 0.579468 17.0581C0.579468 26.4145 8.16428 33.9993 17.5207 33.9993ZM22.8057 8.00885C23.063 7.09506 22.1762 6.5547 21.3663 7.13169L10.0607 15.1858C9.18238 15.8115 9.32054 17.0581 10.2682 17.0581L13.2453 17.0581L13.2453 17.0351L19.0475 17.0351L14.3198 18.7032L12.2356 26.1074C11.9784 27.0212 12.8651 27.5615 13.675 26.9845L24.9806 18.9305C25.8589 18.3048 25.7207 17.0581 24.7731 17.0581L20.2584 17.0581L22.8057 8.00885Z" fill="#F15757"/>
</g>
<defs>
<clipPath id="clip0_87_364">
<rect width="144" height="34.7294" fill="white"/>
</clipPath>
</defs>
</svg>
