<svg width="72" height="18" viewBox="0 0 72 18" fill="none" xmlns="http://www.w3.org/2000/svg">
<g clip-path="url(#clip0_992_10983)">
<path d="M21.9643 11.9172L27.0263 11.9172L27.0263 10.3925L23.7634 10.3925L23.7634 4.64941L21.9643 4.64941L21.9643 11.9172Z" fill="#1C1C1C"/>
<path d="M30.0254 10.9007C29.3037 10.9007 28.9276 10.2705 28.9276 9.32519C28.9276 8.37987 29.3037 7.7395 30.0254 7.7395C30.7471 7.7395 31.1333 8.37987 31.1333 9.32519C31.1333 10.2705 30.7471 10.9007 30.0254 10.9007ZM30.0355 12.0798C31.7127 12.0798 32.8105 10.8906 32.8105 9.32519C32.8105 7.75983 31.7127 6.57056 30.0355 6.57056C28.3685 6.57056 27.2504 7.75983 27.2504 9.32519C27.2504 10.8906 28.3685 12.0798 30.0355 12.0798Z" fill="#1C1C1C"/>
<path d="M35.7136 13.7165C36.4861 13.7165 37.1671 13.5437 37.6245 13.1371C38.0413 12.761 38.3157 12.1918 38.3157 11.4091L38.3157 6.71302L36.73 6.71302L36.73 7.27208L36.7097 7.27208C36.4048 6.83499 35.9372 6.56055 35.246 6.56055C33.9551 6.56055 33.0606 7.63801 33.0606 9.16271C33.0606 10.7586 34.1482 11.6327 35.3171 11.6327C35.9474 11.6327 36.3438 11.3786 36.6487 11.033L36.6894 11.033L36.6894 11.5514C36.6894 12.1816 36.3946 12.5476 35.6932 12.5476C35.1443 12.5476 34.8699 12.3138 34.7784 12.0393L33.1724 12.0393C33.335 13.1269 34.2803 13.7165 35.7136 13.7165ZM35.7034 10.4028C35.0834 10.4028 34.6768 9.89457 34.6768 9.11189C34.6768 8.31904 35.0834 7.81081 35.7034 7.81081C36.3946 7.81081 36.7605 8.40036 36.7605 9.10172C36.7605 9.83358 36.4251 10.4028 35.7034 10.4028Z" fill="#1C1C1C"/>
<path d="M41.5762 10.9007C40.8545 10.9007 40.4784 10.2705 40.4784 9.32519C40.4784 8.37987 40.8545 7.7395 41.5762 7.7395C42.2979 7.7395 42.6841 8.37987 42.6841 9.32519C42.6841 10.2705 42.2979 10.9007 41.5762 10.9007ZM41.5864 12.0798C43.2635 12.0798 44.3613 10.8906 44.3613 9.32519C44.3613 7.75983 43.2635 6.57056 41.5864 6.57056C39.9193 6.57056 38.8012 7.75983 38.8012 9.32519C38.8012 10.8906 39.9193 12.0798 41.5864 12.0798Z" fill="#1C1C1C"/>
<path d="M44.845 11.9172L46.5018 11.9172L46.5018 6.71285L44.845 6.71285L44.845 11.9172ZM44.845 5.99116L46.5018 5.99116L46.5018 4.64941L44.845 4.64941L44.845 5.99116Z" fill="#1C1C1C"/>
<path d="M47.221 13.6352L48.8778 13.6352L48.8778 11.3786L48.8982 11.3786C49.2234 11.8157 49.7012 12.08 50.372 12.08C51.7341 12.08 52.6388 11.0025 52.6388 9.31518C52.6388 7.74982 51.7951 6.56055 50.4127 6.56055C49.7012 6.56055 49.1929 6.87565 48.8372 7.34323L48.8067 7.34323L48.8067 6.71302L47.221 6.71302L47.221 13.6352ZM49.9451 10.7992C49.2336 10.7992 48.827 10.2198 48.827 9.37617C48.827 8.5325 49.1929 7.89212 49.9146 7.89212C50.6262 7.89212 50.9616 8.48168 50.9616 9.37617C50.9616 10.2605 50.5753 10.7992 49.9451 10.7992Z" fill="#1C1C1C"/>
<path d="M55.3362 12.08C56.6983 12.08 57.7046 11.4904 57.7046 10.352C57.7046 9.02041 56.6272 8.78662 55.7123 8.63415C55.0516 8.51217 54.4621 8.46135 54.4621 8.09542C54.4621 7.77015 54.7772 7.61768 55.1838 7.61768C55.6412 7.61768 55.9563 7.75998 56.0173 8.22756L57.542 8.22756C57.4607 7.20092 56.6678 6.56055 55.1939 6.56055C53.964 6.56055 52.9475 7.12977 52.9475 8.22756C52.9475 9.44732 53.9132 9.69128 54.8178 9.84375C55.509 9.96572 56.1392 10.0165 56.1392 10.4841C56.1392 10.8196 55.8241 11.0025 55.3261 11.0025C54.7772 11.0025 54.4316 10.7484 54.3706 10.23L52.8052 10.23C52.856 11.3786 53.8115 12.08 55.3362 12.08Z" fill="#1C1C1C"/>
<path d="M59.9552 12.0697C60.6769 12.0697 61.1343 11.7851 61.5104 11.2768L61.5409 11.2768L61.5409 11.9172L63.1266 11.9172L63.1266 6.71289L61.4698 6.71289L61.4698 9.62C61.4698 10.24 61.1242 10.667 60.555 10.667C60.0264 10.667 59.7723 10.3519 59.7723 9.78263L59.7723 6.71289L58.1256 6.71289L58.1256 10.1282C58.1256 11.287 58.7558 12.0697 59.9552 12.0697Z" fill="#1C1C1C"/>
<path d="M63.8471 11.9173L65.5039 11.9173L65.5039 9.00008C65.5039 8.38003 65.8089 7.94295 66.3273 7.94295C66.8253 7.94295 67.0591 8.26822 67.0591 8.82728L67.0591 11.9173L68.716 11.9173L68.716 9.00008C68.716 8.38003 69.0107 7.94295 69.5393 7.94295C70.0374 7.94295 70.2712 8.26822 70.2712 8.82728L70.2712 11.9173L71.928 11.9173L71.928 8.5325C71.928 7.36356 71.3385 6.56055 70.1593 6.56055C69.4885 6.56055 68.9294 6.84516 68.5228 7.47537L68.5025 7.47537C68.2382 6.91631 67.7198 6.56055 67.0388 6.56055C66.2866 6.56055 65.7885 6.91631 65.4632 7.45504L65.4328 7.45504L65.4328 6.71302L63.8471 6.71302L63.8471 11.9173Z" fill="#1C1C1C"/>
<path fill-rule="evenodd" clip-rule="evenodd" d="M8.76033 16.9995C13.4385 16.9995 17.2309 13.2071 17.2309 8.52892C17.2309 3.85076 13.4385 0.0583496 8.76033 0.0583496C4.08214 0.0583496 0.289734 3.85076 0.289734 8.52892C0.289734 13.2071 4.08214 16.9995 8.76033 16.9995ZM11.4029 4.00431C11.5315 3.54741 11.0881 3.27723 10.6832 3.56572L5.03035 7.59276C4.59119 7.90562 4.66027 8.52892 5.13411 8.52892L6.62265 8.52892L6.62265 8.5174L9.52374 8.5174L7.1599 9.35146L6.1178 13.0536C5.98918 13.5105 6.43253 13.7806 6.83751 13.4921L12.4903 9.46514C12.9295 9.15228 12.8603 8.52892 12.3865 8.52892L10.1292 8.52892L11.4029 4.00431Z" fill="#F15757"/>
</g>
<defs>
<clipPath id="clip0_992_10983">
<rect width="72" height="17.3647" fill="white"/>
</clipPath>
</defs>
</svg>
