<svg width="25" height="25" viewBox="0 0 25 25" fill="none" xmlns="http://www.w3.org/2000/svg">
<path d="M20.75 5.75V11.75H15.5V5.75H20.75ZM4.25 20C4.25 20.1989 4.32902 20.3897 4.46967 20.5303C4.61032 20.671 4.80109 20.75 5 20.75H8.75C8.94891 20.75 9.13968 20.671 9.28033 20.5303C9.42098 20.3897 9.5 20.1989 9.5 20V11.75H4.25V20Z" fill="#1C1C1C" fill-opacity="0.1"/>
<path d="M20.75 5H4.25C4.05109 5 3.86032 5.07902 3.71967 5.21967C3.57902 5.36032 3.5 5.55109 3.5 5.75V20C3.5 20.3978 3.65804 20.7794 3.93934 21.0607C4.22064 21.342 4.60218 21.5 5 21.5H8.75C9.14782 21.5 9.52936 21.342 9.81066 21.0607C10.092 20.7794 10.25 20.3978 10.25 20V15.5H14.75V17C14.75 17.3978 14.908 17.7794 15.1893 18.0607C15.4706 18.342 15.8522 18.5 16.25 18.5H20C20.3978 18.5 20.7794 18.342 21.0607 18.0607C21.342 17.7794 21.5 17.3978 21.5 17V5.75C21.5 5.55109 21.421 5.36032 21.2803 5.21967C21.1397 5.07902 20.9489 5 20.75 5ZM20 11H16.25V6.5H20V11ZM8.75 6.5V11H5V6.5H8.75ZM8.75 20H5V12.5H8.75V20ZM10.25 14V6.5H14.75V14H10.25ZM16.25 17V12.5H20V17H16.25Z" fill="#1C1C1C"/>
</svg>
