<svg width="24" height="25" viewBox="0 0 24 25" fill="none" xmlns="http://www.w3.org/2000/svg">
<path d="M15.75 14C15.75 14.7417 15.5301 15.4667 15.118 16.0834C14.706 16.7001 14.1203 17.1807 13.4351 17.4645C12.7498 17.7484 11.9958 17.8226 11.2684 17.6779C10.541 17.5333 9.8728 17.1761 9.34835 16.6517C8.8239 16.1272 8.46675 15.459 8.32206 14.7316C8.17736 14.0042 8.25162 13.2502 8.53545 12.5649C8.81928 11.8797 9.29993 11.294 9.91661 10.882C10.5333 10.4699 11.2583 10.25 12 10.25C12.9946 10.25 13.9484 10.6451 14.6517 11.3483C15.3549 12.0516 15.75 13.0054 15.75 14ZM6 5.75C5.40666 5.75 4.82664 5.92595 4.33329 6.25559C3.83994 6.58524 3.45543 7.05377 3.22836 7.60195C3.0013 8.15013 2.94189 8.75333 3.05765 9.33527C3.1734 9.91721 3.45912 10.4518 3.87868 10.8713C4.29824 11.2909 4.83279 11.5766 5.41473 11.6924C5.99667 11.8081 6.59987 11.7487 7.14805 11.5216C7.69623 11.2946 8.16477 10.9101 8.49441 10.4167C8.82405 9.92336 9 9.34334 9 8.75C9 7.95435 8.68393 7.19129 8.12132 6.62868C7.55871 6.06607 6.79565 5.75 6 5.75ZM18 5.75C17.4067 5.75 16.8266 5.92595 16.3333 6.25559C15.8399 6.58524 15.4554 7.05377 15.2284 7.60195C15.0013 8.15013 14.9419 8.75333 15.0576 9.33527C15.1734 9.91721 15.4591 10.4518 15.8787 10.8713C16.2982 11.2909 16.8328 11.5766 17.4147 11.6924C17.9967 11.8081 18.5999 11.7487 19.1481 11.5216C19.6962 11.2946 20.1648 10.9101 20.4944 10.4167C20.8241 9.92336 21 9.34334 21 8.75C21 7.95435 20.6839 7.19129 20.1213 6.62868C19.5587 6.06607 18.7957 5.75 18 5.75Z" fill="#1C1C1C" fill-opacity="0.1"/>
<path d="M22.95 14.6C22.8712 14.6591 22.7815 14.7021 22.6861 14.7265C22.5907 14.751 22.4914 14.7564 22.3939 14.7425C22.2964 14.7285 22.2026 14.6955 22.1179 14.6454C22.0331 14.5952 21.9591 14.5288 21.9 14.45C21.4479 13.8424 20.8595 13.3494 20.1822 13.0107C19.5048 12.672 18.7573 12.4971 18 12.5C17.8011 12.5 17.6103 12.421 17.4697 12.2803C17.329 12.1397 17.25 11.9489 17.25 11.75C17.25 11.5511 17.329 11.3603 17.4697 11.2197C17.6103 11.079 17.8011 11 18 11C18.4208 11 18.8332 10.8819 19.1903 10.6593C19.5474 10.4366 19.8349 10.1183 20.0201 9.74041C20.2053 9.36256 20.2809 8.94033 20.2382 8.52168C20.1955 8.10304 20.0362 7.70476 19.7785 7.37208C19.5208 7.03941 19.175 6.78568 18.7803 6.6397C18.3856 6.49373 17.9579 6.46137 17.5457 6.5463C17.1336 6.63122 16.7535 6.83004 16.4486 7.12015C16.1438 7.41026 15.9264 7.78005 15.8212 8.1875C15.7966 8.28291 15.7534 8.37254 15.6942 8.45127C15.6349 8.53 15.5607 8.59628 15.4759 8.64634C15.391 8.6964 15.2971 8.72924 15.1995 8.74301C15.1019 8.75677 15.0026 8.75119 14.9072 8.72656C14.8118 8.70194 14.7221 8.65876 14.6434 8.5995C14.5647 8.54024 14.4984 8.46605 14.4483 8.38118C14.3983 8.2963 14.3654 8.20239 14.3517 8.10482C14.3379 8.00724 14.3435 7.90791 14.3681 7.8125C14.5141 7.24748 14.79 6.72434 15.1738 6.2847C15.5576 5.84507 16.0387 5.50107 16.5788 5.28008C17.1189 5.05909 17.7032 4.96721 18.285 5.01175C18.8669 5.05629 19.4304 5.23602 19.9306 5.53664C20.4308 5.83726 20.8539 6.25047 21.1663 6.74339C21.4787 7.23632 21.6717 7.79535 21.7301 8.37601C21.7884 8.95667 21.7104 9.54293 21.5023 10.0881C21.2941 10.6334 20.9617 11.1225 20.5312 11.5166C21.5511 11.9581 22.4376 12.6588 23.1028 13.5491C23.1619 13.6281 23.2048 13.7179 23.2291 13.8135C23.2534 13.9091 23.2586 14.0086 23.2444 14.1062C23.2302 14.2039 23.1969 14.2977 23.1464 14.3825C23.0959 14.4672 23.0291 14.5411 22.95 14.6ZM17.8987 20.375C17.9511 20.4604 17.9858 20.5554 18.0009 20.6544C18.0159 20.7534 18.011 20.8544 17.9864 20.9515C17.9618 21.0486 17.9179 21.1398 17.8575 21.2196C17.7971 21.2995 17.7213 21.3665 17.6345 21.4165C17.5478 21.4666 17.4519 21.4989 17.3525 21.5113C17.2532 21.5237 17.1523 21.5161 17.0559 21.489C16.9595 21.4618 16.8695 21.4156 16.7913 21.3531C16.713 21.2906 16.6481 21.213 16.6003 21.125C16.1278 20.3252 15.455 19.6624 14.6481 19.202C13.8413 18.7416 12.9285 18.4994 11.9995 18.4994C11.0706 18.4994 10.1577 18.7416 9.3509 19.202C8.5441 19.6624 7.87126 20.3252 7.39874 21.125C7.35186 21.2146 7.28733 21.2938 7.20903 21.3579C7.13073 21.4219 7.04029 21.4695 6.94315 21.4977C6.846 21.5258 6.74416 21.5341 6.64374 21.5219C6.54333 21.5097 6.44642 21.4773 6.35885 21.4267C6.27127 21.3761 6.19484 21.3083 6.13416 21.2273C6.07347 21.1464 6.02978 21.054 6.00572 20.9558C5.98165 20.8575 5.97771 20.7554 5.99412 20.6556C6.01054 20.5558 6.04698 20.4604 6.10124 20.375C6.82837 19.1257 7.93705 18.1425 9.26437 17.57C8.51749 16.9982 7.96858 16.2066 7.69481 15.3067C7.42103 14.4068 7.43615 13.4437 7.73804 12.5528C8.03993 11.6619 8.61341 10.888 9.37787 10.3399C10.1423 9.79177 11.0593 9.497 12 9.497C12.9406 9.497 13.8577 9.79177 14.6221 10.3399C15.3866 10.888 15.9601 11.6619 16.2619 12.5528C16.5638 13.4437 16.579 14.4068 16.3052 15.3067C16.0314 16.2066 15.4825 16.9982 14.7356 17.57C16.0629 18.1425 17.1716 19.1257 17.8987 20.375ZM12 17C12.5933 17 13.1734 16.8241 13.6667 16.4944C14.1601 16.1648 14.5446 15.6962 14.7716 15.1481C14.9987 14.5999 15.0581 13.9967 14.9423 13.4147C14.8266 12.8328 14.5409 12.2982 14.1213 11.8787C13.7018 11.4591 13.1672 11.1734 12.5853 11.0576C12.0033 10.9419 11.4001 11.0013 10.8519 11.2284C10.3038 11.4554 9.83523 11.8399 9.50559 12.3333C9.17594 12.8266 8.99999 13.4067 8.99999 14C8.99999 14.7957 9.31606 15.5587 9.87867 16.1213C10.4413 16.6839 11.2043 17 12 17ZM6.74999 11.75C6.74999 11.5511 6.67098 11.3603 6.53032 11.2197C6.38967 11.079 6.19891 11 5.99999 11C5.57918 11 5.1668 10.8819 4.80971 10.6593C4.45263 10.4366 4.16514 10.1183 3.9799 9.74041C3.79466 9.36256 3.7191 8.94033 3.76181 8.52168C3.80451 8.10304 3.96376 7.70476 4.22147 7.37208C4.47918 7.03941 4.82502 6.78568 5.21971 6.6397C5.6144 6.49373 6.04212 6.46137 6.45428 6.5463C6.86643 6.63122 7.24651 6.83004 7.55135 7.12015C7.85618 7.41026 8.07354 7.78005 8.17874 8.1875C8.22847 8.3802 8.35271 8.54525 8.52413 8.64634C8.69555 8.74743 8.90011 8.77629 9.09281 8.72656C9.2855 8.67683 9.45055 8.55259 9.55165 8.38118C9.65274 8.20975 9.6816 8.0052 9.63187 7.8125C9.48585 7.24748 9.20997 6.72434 8.82619 6.2847C8.44241 5.84507 7.96132 5.50107 7.4212 5.28008C6.88108 5.05909 6.29683 4.96721 5.71495 5.01175C5.13307 5.05629 4.56962 5.23602 4.06943 5.53664C3.56923 5.83726 3.1461 6.25047 2.8337 6.74339C2.5213 7.23632 2.32826 7.79535 2.26993 8.37601C2.21161 8.95667 2.28961 9.54293 2.49772 10.0881C2.70584 10.6334 3.03833 11.1225 3.46874 11.5166C2.44995 11.9585 1.56441 12.6592 0.899995 13.5491C0.780523 13.7082 0.729158 13.9083 0.757201 14.1053C0.785243 14.3023 0.890396 14.4801 1.04953 14.5995C1.20866 14.719 1.40873 14.7704 1.60573 14.7423C1.80273 14.7143 1.98052 14.6091 2.09999 14.45C2.55204 13.8424 3.14044 13.3494 3.81783 13.0107C4.49522 12.672 5.24266 12.4971 5.99999 12.5C6.19891 12.5 6.38967 12.421 6.53032 12.2803C6.67098 12.1397 6.74999 11.9489 6.74999 11.75Z" fill="#1C1C1C"/>
</svg>
