<svg width="42" height="33" viewBox="0 0 42 33" fill="none" xmlns="http://www.w3.org/2000/svg">
<path d="M2.54998 32.7419L2.54998 25.8059L6.52799 25.8059C9.65599 25.8059 11.22 24.2419 11.22 21.1139L11.22 17.8499L9.48599 17.8499C6.76599 17.8499 4.52199 17.0339 2.75398 15.4019C0.917986 13.7699 -1.34189e-05 11.6959 -1.31989e-05 9.17994C-1.29611e-05 6.45994 0.917986 4.24994 2.75399 2.54994C4.52199 0.849936 6.76599 -6.4064e-05 9.48599 -6.38262e-05C12.274 -6.35825e-05 14.552 0.849937 16.32 2.54994C18.088 4.31794 18.972 6.66394 18.972 9.58794L18.972 21.3179C18.972 28.9339 15.164 32.7419 7.54799 32.7419L2.54998 32.7419ZM24.99 32.7419L24.99 25.8059L28.968 25.8059C32.096 25.8059 33.66 24.2419 33.66 21.1139L33.66 17.8499L31.926 17.8499C29.206 17.8499 26.962 17.0339 25.194 15.4019C23.358 13.7699 22.44 11.6959 22.44 9.17994C22.44 6.45994 23.358 4.24994 25.194 2.54994C26.962 0.849938 29.206 -6.21022e-05 31.926 -6.18644e-05C34.714 -6.16207e-05 36.992 0.849939 38.76 2.54994C40.528 4.31794 41.412 6.66394 41.412 9.58794L41.412 21.3179C41.412 28.9339 37.604 32.7419 29.988 32.7419L24.99 32.7419Z" fill="#1C1C1C" fill-opacity="0.05"/>
</svg>
