<svg width="29" height="28" viewBox="0 0 29 28" fill="none" xmlns="http://www.w3.org/2000/svg">
<rect x="0.89856" width="28" height="28" rx="14" fill="#F88E12"/>
<path fill-rule="evenodd" clip-rule="evenodd" d="M11.7039 9.52743C11.7039 8.46879 12.562 7.6106 13.6207 7.6106H16.9799C17.4882 7.6106 17.9758 7.81255 18.3353 8.17202L20.0877 9.92442C20.4471 10.2839 20.6491 10.7715 20.6491 11.2798V15.9169C20.6491 16.9755 19.7909 17.8337 18.7322 17.8337H18.0933V18.4727C18.0933 19.5313 17.2351 20.3895 16.1765 20.3895H11.0649C10.0063 20.3895 9.14807 19.5313 9.14807 18.4727V12.0832C9.14807 11.0246 10.0063 10.1664 11.0649 10.1664H11.7039V9.52743ZM11.7039 15.9169V11.4443H11.0649C10.712 11.4443 10.426 11.7303 10.426 12.0832V18.4727C10.426 18.8255 10.712 19.1116 11.0649 19.1116H16.1765C16.5293 19.1116 16.8154 18.8255 16.8154 18.4727V17.8337H13.6207C12.562 17.8337 11.7039 16.9755 11.7039 15.9169ZM16.8154 9.02082V10.1664C16.8154 10.8721 17.3875 11.4443 18.0933 11.4443H19.2389C19.5235 11.4443 19.666 11.1002 19.4648 10.8989L17.3608 8.79492C17.1595 8.59367 16.8154 8.7362 16.8154 9.02082Z" fill="white"/>
</svg>
