<svg width="25" height="25" viewBox="0 0 25 25" fill="none" xmlns="http://www.w3.org/2000/svg">
<path d="M20 7.25V17.75H5V7.25H20Z" fill="#1C1C1C" fill-opacity="0.1"/>
<path d="M8.75 14V12.5C8.75 12.3011 8.82902 12.1103 8.96967 11.9697C9.11032 11.829 9.30109 11.75 9.5 11.75C9.69891 11.75 9.88968 11.829 10.0303 11.9697C10.171 12.1103 10.25 12.3011 10.25 12.5V14C10.25 14.1989 10.171 14.3897 10.0303 14.5303C9.88968 14.671 9.69891 14.75 9.5 14.75C9.30109 14.75 9.11032 14.671 8.96967 14.5303C8.82902 14.3897 8.75 14.1989 8.75 14ZM12.5 14.75C12.6989 14.75 12.8897 14.671 13.0303 14.5303C13.171 14.3897 13.25 14.1989 13.25 14V11.75C13.25 11.5511 13.171 11.3603 13.0303 11.2197C12.8897 11.079 12.6989 11 12.5 11C12.3011 11 12.1103 11.079 11.9697 11.2197C11.829 11.3603 11.75 11.5511 11.75 11.75V14C11.75 14.1989 11.829 14.3897 11.9697 14.5303C12.1103 14.671 12.3011 14.75 12.5 14.75ZM15.5 14.75C15.6989 14.75 15.8897 14.671 16.0303 14.5303C16.171 14.3897 16.25 14.1989 16.25 14V11C16.25 10.8011 16.171 10.6103 16.0303 10.4697C15.8897 10.329 15.6989 10.25 15.5 10.25C15.3011 10.25 15.1103 10.329 14.9697 10.4697C14.829 10.6103 14.75 10.8011 14.75 11V14C14.75 14.1989 14.829 14.3897 14.9697 14.5303C15.1103 14.671 15.3011 14.75 15.5 14.75ZM20.75 8V17H21.5C21.6989 17 21.8897 17.079 22.0303 17.2197C22.171 17.3603 22.25 17.5511 22.25 17.75C22.25 17.9489 22.171 18.1397 22.0303 18.2803C21.8897 18.421 21.6989 18.5 21.5 18.5H13.25V20.1294C13.7504 20.3063 14.1722 20.6544 14.4407 21.1122C14.7093 21.57 14.8073 22.1081 14.7176 22.6312C14.6278 23.1543 14.356 23.6288 13.9502 23.971C13.5444 24.3131 13.0308 24.5007 12.5 24.5007C11.9692 24.5007 11.4556 24.3131 11.0498 23.971C10.644 23.6288 10.3722 23.1543 10.2824 22.6312C10.1926 22.1081 10.2907 21.57 10.5593 21.1122C10.8278 20.6544 11.2496 20.3063 11.75 20.1294V18.5H3.5C3.30109 18.5 3.11032 18.421 2.96967 18.2803C2.82902 18.1397 2.75 17.9489 2.75 17.75C2.75 17.5511 2.82902 17.3603 2.96967 17.2197C3.11032 17.079 3.30109 17 3.5 17H4.25V8C3.85218 8 3.47064 7.84196 3.18934 7.56066C2.90804 7.27936 2.75 6.89782 2.75 6.5V5C2.75 4.60218 2.90804 4.22064 3.18934 3.93934C3.47064 3.65804 3.85218 3.5 4.25 3.5H20.75C21.1478 3.5 21.5294 3.65804 21.8107 3.93934C22.092 4.22064 22.25 4.60218 22.25 5V6.5C22.25 6.89782 22.092 7.27936 21.8107 7.56066C21.5294 7.84196 21.1478 8 20.75 8ZM13.25 22.25C13.25 22.1017 13.206 21.9567 13.1236 21.8333C13.0412 21.71 12.9241 21.6139 12.787 21.5571C12.65 21.5003 12.4992 21.4855 12.3537 21.5144C12.2082 21.5433 12.0746 21.6148 11.9697 21.7197C11.8648 21.8246 11.7934 21.9582 11.7644 22.1037C11.7355 22.2492 11.7503 22.4 11.8071 22.537C11.8639 22.6741 11.96 22.7912 12.0833 22.8736C12.2067 22.956 12.3517 23 12.5 23C12.6989 23 12.8897 22.921 13.0303 22.7803C13.171 22.6397 13.25 22.4489 13.25 22.25ZM4.25 6.5H20.75V5H4.25V6.5ZM19.25 8H5.75V17H19.25V8Z" fill="#1C1C1C"/>
</svg>
